<?xml version="1.0" encoding="UTF-8" standalone="no"?>
<!DOCTYPE svg PUBLIC "-//W3C//DTD SVG 1.1//EN"
 "http://www.w3.org/Graphics/SVG/1.1/DTD/svg11.dtd">
<!-- Generated by graphviz version 2.43.0 (0)
 -->
<!-- Title: %3 Pages: 1 -->
<svg width="1229pt" height="908pt"
 viewBox="0.00 0.00 1229.32 908.00" xmlns="http://www.w3.org/2000/svg" xmlns:xlink="http://www.w3.org/1999/xlink">
<g id="graph0" class="graph" transform="scale(1 1) rotate(0) translate(4 904)">
<title>%3</title>
<polygon fill="white" stroke="transparent" points="-4,4 -4,-904 1225.32,-904 1225.32,4 -4,4"/>
<!-- n0x5559972d9800 -->
<g id="node1" class="node">
<title>n0x5559972d9800</title>
<ellipse fill="none" stroke="black" cx="438.69" cy="-882" rx="46.29" ry="18"/>
<text text-anchor="middle" x="438.69" y="-878.3" font-family="Helvetica,Arial,sans-serif" font-size="14.00">first_task</text>
</g>
<!-- n0x555997a87990 -->
<g id="node3" class="node">
<title>n0x555997a87990</title>
<ellipse fill="none" stroke="black" cx="141.69" cy="-810" rx="141.88" ry="18"/>
<text text-anchor="middle" x="141.69" y="-806.3" font-family="Helvetica,Arial,sans-serif" font-size="14.00"> StartReceiveBoundaryBuffers(...)</text>
</g>
<!-- n0x5559972d9800&#45;&gt;n0x555997a87990 -->
<g id="edge1" class="edge">
<title>n0x5559972d9800&#45;&gt;n0x555997a87990</title>
<path fill="none" stroke="black" d="M400.16,-871.92C353.58,-860.94 274.13,-842.22 215.59,-828.42"/>
<polygon fill="black" stroke="black" points="216.18,-824.96 205.65,-826.07 214.58,-831.77 216.18,-824.96"/>
</g>
<!-- n0x555997a87b40 -->
<g id="node4" class="node">
<title>n0x555997a87b40</title>
<ellipse fill="none" stroke="black" cx="438.69" cy="-810" rx="137.58" ry="18"/>
<text text-anchor="middle" x="438.69" y="-806.3" font-family="Helvetica,Arial,sans-serif" font-size="14.00"> StartReceiveFluxCorrections(...)</text>
</g>
<!-- n0x5559972d9800&#45;&gt;n0x555997a87b40 -->
<g id="edge2" class="edge">
<title>n0x5559972d9800&#45;&gt;n0x555997a87b40</title>
<path fill="none" stroke="black" d="M438.69,-863.7C438.69,-855.98 438.69,-846.71 438.69,-838.11"/>
<polygon fill="black" stroke="black" points="442.19,-838.1 438.69,-828.1 435.19,-838.1 442.19,-838.1"/>
</g>
<!-- n0x555997a87dd0 -->
<g id="node5" class="node">
<title>n0x555997a87dd0</title>
<ellipse fill="none" stroke="black" cx="709.69" cy="-810" rx="115.88" ry="18"/>
<text text-anchor="middle" x="709.69" y="-806.3" font-family="Helvetica,Arial,sans-serif" font-size="14.00"> hydro::CalculateFluxes(...)</text>
</g>
<!-- n0x5559972d9800&#45;&gt;n0x555997a87dd0 -->
<g id="edge3" class="edge">
<title>n0x5559972d9800&#45;&gt;n0x555997a87dd0</title>
<path fill="none" stroke="black" d="M473.56,-870.1C480.53,-868.01 487.83,-865.88 494.69,-864 542.22,-850.94 596.07,-837.66 637.99,-827.67"/>
<polygon fill="black" stroke="black" points="638.91,-831.05 647.83,-825.33 637.29,-824.24 638.91,-831.05"/>
</g>
<!-- n0x555997350a10 -->
<g id="node2" class="node">
<title>n0x555997350a10</title>
<ellipse fill="none" stroke="black" cx="548.69" cy="-882" rx="45.49" ry="18"/>
<text text-anchor="middle" x="548.69" y="-878.3" font-family="Helvetica,Arial,sans-serif" font-size="14.00">last_task</text>
</g>
<!-- n0x555997a88020 -->
<g id="node6" class="node">
<title>n0x555997a88020</title>
<ellipse fill="none" stroke="black" cx="550.69" cy="-738" rx="145.67" ry="18"/>
<text text-anchor="middle" x="550.69" y="-734.3" font-family="Helvetica,Arial,sans-serif" font-size="14.00"> SendBoundBufs&lt;flxcor_send&gt;(...)</text>
</g>
<!-- n0x555997a87dd0&#45;&gt;n0x555997a88020 -->
<g id="edge4" class="edge">
<title>n0x555997a87dd0&#45;&gt;n0x555997a88020</title>
<path fill="none" stroke="black" d="M672.81,-792.76C650.38,-782.89 621.51,-770.18 597.48,-759.6"/>
<polygon fill="black" stroke="black" points="598.75,-756.34 588.19,-755.51 595.93,-762.74 598.75,-756.34"/>
</g>
<!-- n0x555997a881f0 -->
<g id="node7" class="node">
<title>n0x555997a881f0</title>
<ellipse fill="none" stroke="black" cx="868.69" cy="-738" rx="154.07" ry="18"/>
<text text-anchor="middle" x="868.69" y="-734.3" font-family="Helvetica,Arial,sans-serif" font-size="14.00"> ReceiveBoundBufs&lt;flxcor_recv&gt;(...)</text>
</g>
<!-- n0x555997a87dd0&#45;&gt;n0x555997a881f0 -->
<g id="edge5" class="edge">
<title>n0x555997a87dd0&#45;&gt;n0x555997a881f0</title>
<path fill="none" stroke="black" d="M746.56,-792.76C769,-782.89 797.86,-770.18 821.89,-759.6"/>
<polygon fill="black" stroke="black" points="823.44,-762.74 831.18,-755.51 820.62,-756.34 823.44,-762.74"/>
</g>
<!-- n0x555997a88470 -->
<g id="node8" class="node">
<title>n0x555997a88470</title>
<ellipse fill="none" stroke="black" cx="868.69" cy="-666" rx="122.38" ry="18"/>
<text text-anchor="middle" x="868.69" y="-662.3" font-family="Helvetica,Arial,sans-serif" font-size="14.00"> SetBounds&lt;flxcor_recv&gt;(...)</text>
</g>
<!-- n0x555997a881f0&#45;&gt;n0x555997a88470 -->
<g id="edge6" class="edge">
<title>n0x555997a881f0&#45;&gt;n0x555997a88470</title>
<path fill="none" stroke="black" d="M868.69,-719.7C868.69,-711.98 868.69,-702.71 868.69,-694.11"/>
<polygon fill="black" stroke="black" points="872.19,-694.1 868.69,-684.1 865.19,-694.1 872.19,-694.1"/>
</g>
<!-- n0x555997a886a0 -->
<g id="node9" class="node">
<title>n0x555997a886a0</title>
<ellipse fill="none" stroke="black" cx="868.69" cy="-594" rx="100.98" ry="18"/>
<text text-anchor="middle" x="868.69" y="-590.3" font-family="Helvetica,Arial,sans-serif" font-size="14.00"> grid::FluxesToDuDt(...)</text>
</g>
<!-- n0x555997a88470&#45;&gt;n0x555997a886a0 -->
<g id="edge7" class="edge">
<title>n0x555997a88470&#45;&gt;n0x555997a886a0</title>
<path fill="none" stroke="black" d="M868.69,-647.7C868.69,-639.98 868.69,-630.71 868.69,-622.11"/>
<polygon fill="black" stroke="black" points="872.19,-622.1 868.69,-612.1 865.19,-622.1 872.19,-622.1"/>
</g>
<!-- n0x555997a889c0 -->
<g id="node10" class="node">
<title>n0x555997a889c0</title>
<ellipse fill="none" stroke="black" cx="868.69" cy="-522" rx="87.99" ry="18"/>
<text text-anchor="middle" x="868.69" y="-518.3" font-family="Helvetica,Arial,sans-serif" font-size="14.00"> grid::ApplyDuDt(...)</text>
</g>
<!-- n0x555997a886a0&#45;&gt;n0x555997a889c0 -->
<g id="edge8" class="edge">
<title>n0x555997a886a0&#45;&gt;n0x555997a889c0</title>
<path fill="none" stroke="black" d="M868.69,-575.7C868.69,-567.98 868.69,-558.71 868.69,-550.11"/>
<polygon fill="black" stroke="black" points="872.19,-550.1 868.69,-540.1 865.19,-550.1 872.19,-550.1"/>
</g>
<!-- n0x555997a88c60 -->
<g id="node11" class="node">
<title>n0x555997a88c60</title>
<ellipse fill="none" stroke="black" cx="868.69" cy="-450" rx="118.08" ry="18"/>
<text text-anchor="middle" x="868.69" y="-446.3" font-family="Helvetica,Arial,sans-serif" font-size="14.00"> hydro::PreparePrimitive(...)</text>
</g>
<!-- n0x555997a889c0&#45;&gt;n0x555997a88c60 -->
<g id="edge9" class="edge">
<title>n0x555997a889c0&#45;&gt;n0x555997a88c60</title>
<path fill="none" stroke="black" d="M868.69,-503.7C868.69,-495.98 868.69,-486.71 868.69,-478.11"/>
<polygon fill="black" stroke="black" points="872.19,-478.1 868.69,-468.1 865.19,-478.1 872.19,-478.1"/>
</g>
<!-- n0x555997a88ee0 -->
<g id="node12" class="node">
<title>n0x555997a88ee0</title>
<ellipse fill="none" stroke="black" cx="868.69" cy="-378" rx="110.48" ry="18"/>
<text text-anchor="middle" x="868.69" y="-374.3" font-family="Helvetica,Arial,sans-serif" font-size="14.00"> eos::PreparePrimitive(...)</text>
</g>
<!-- n0x555997a88c60&#45;&gt;n0x555997a88ee0 -->
<g id="edge10" class="edge">
<title>n0x555997a88c60&#45;&gt;n0x555997a88ee0</title>
<path fill="none" stroke="black" d="M868.69,-431.7C868.69,-423.98 868.69,-414.71 868.69,-406.11"/>
<polygon fill="black" stroke="black" points="872.19,-406.1 868.69,-396.1 865.19,-406.1 872.19,-406.1"/>
</g>
<!-- n0x555997a89110 -->
<g id="node13" class="node">
<title>n0x555997a89110</title>
<ellipse fill="none" stroke="black" cx="724.69" cy="-306" rx="129.18" ry="18"/>
<text text-anchor="middle" x="724.69" y="-302.3" font-family="Helvetica,Arial,sans-serif" font-size="14.00"> SendBoundBufs&lt;bounds&gt;(...)</text>
</g>
<!-- n0x555997a88ee0&#45;&gt;n0x555997a89110 -->
<g id="edge11" class="edge">
<title>n0x555997a88ee0&#45;&gt;n0x555997a89110</title>
<path fill="none" stroke="black" d="M835.29,-360.76C815.08,-350.94 789.11,-338.32 767.41,-327.77"/>
<polygon fill="black" stroke="black" points="768.93,-324.61 758.4,-323.39 765.87,-330.91 768.93,-324.61"/>
</g>
<!-- n0x555997a89350 -->
<g id="node14" class="node">
<title>n0x555997a89350</title>
<ellipse fill="none" stroke="black" cx="1012.69" cy="-306" rx="140.28" ry="18"/>
<text text-anchor="middle" x="1012.69" y="-302.3" font-family="Helvetica,Arial,sans-serif" font-size="14.00"> ReceiveBoundBufs&lt;bounds&gt;(...)</text>
</g>
<!-- n0x555997a88ee0&#45;&gt;n0x555997a89350 -->
<g id="edge12" class="edge">
<title>n0x555997a88ee0&#45;&gt;n0x555997a89350</title>
<path fill="none" stroke="black" d="M902.09,-360.76C922.13,-351.02 947.85,-338.52 969.44,-328.02"/>
<polygon fill="black" stroke="black" points="971.26,-331.03 978.72,-323.51 968.2,-324.74 971.26,-331.03"/>
</g>
<!-- n0x555997a89570 -->
<g id="node15" class="node">
<title>n0x555997a89570</title>
<ellipse fill="none" stroke="black" cx="1012.69" cy="-234" rx="108.58" ry="18"/>
<text text-anchor="middle" x="1012.69" y="-230.3" font-family="Helvetica,Arial,sans-serif" font-size="14.00"> SetBounds&lt;bounds&gt;(...)</text>
</g>
<!-- n0x555997a89350&#45;&gt;n0x555997a89570 -->
<g id="edge13" class="edge">
<title>n0x555997a89350&#45;&gt;n0x555997a89570</title>
<path fill="none" stroke="black" d="M1012.69,-287.7C1012.69,-279.98 1012.69,-270.71 1012.69,-262.11"/>
<polygon fill="black" stroke="black" points="1016.19,-262.1 1012.69,-252.1 1009.19,-262.1 1016.19,-262.1"/>
</g>
<!-- n0x555997a897a0 -->
<g id="node16" class="node">
<title>n0x555997a897a0</title>
<ellipse fill="none" stroke="black" cx="1012.69" cy="-162" rx="208.76" ry="18"/>
<text text-anchor="middle" x="1012.69" y="-158.3" font-family="Helvetica,Arial,sans-serif" font-size="14.00"> ApplyBoundaryConditionsOnCoarseOrFineMD(...)</text>
</g>
<!-- n0x555997a89570&#45;&gt;n0x555997a897a0 -->
<g id="edge14" class="edge">
<title>n0x555997a89570&#45;&gt;n0x555997a897a0</title>
<path fill="none" stroke="black" d="M1012.69,-215.7C1012.69,-207.98 1012.69,-198.71 1012.69,-190.11"/>
<polygon fill="black" stroke="black" points="1016.19,-190.1 1012.69,-180.1 1009.19,-190.1 1016.19,-190.1"/>
</g>
<!-- n0x555997a89980 -->
<g id="node17" class="node">
<title>n0x555997a89980</title>
<ellipse fill="none" stroke="black" cx="1012.69" cy="-90" rx="137.58" ry="18"/>
<text text-anchor="middle" x="1012.69" y="-86.3" font-family="Helvetica,Arial,sans-serif" font-size="14.00"> ProlongateBounds&lt;bounds&gt;(...)</text>
</g>
<!-- n0x555997a897a0&#45;&gt;n0x555997a89980 -->
<g id="edge15" class="edge">
<title>n0x555997a897a0&#45;&gt;n0x555997a89980</title>
<path fill="none" stroke="black" d="M1012.69,-143.7C1012.69,-135.98 1012.69,-126.71 1012.69,-118.11"/>
<polygon fill="black" stroke="black" points="1016.19,-118.1 1012.69,-108.1 1009.19,-118.1 1016.19,-118.1"/>
</g>
<!-- n0x555997a89bc0 -->
<g id="node18" class="node">
<title>n0x555997a89bc0</title>
<ellipse fill="none" stroke="black" cx="1012.69" cy="-18" rx="208.76" ry="18"/>
<text text-anchor="middle" x="1012.69" y="-14.3" font-family="Helvetica,Arial,sans-serif" font-size="14.00"> ApplyBoundaryConditionsOnCoarseOrFineMD(...)</text>
</g>
<!-- n0x555997a89980&#45;&gt;n0x555997a89bc0 -->
<g id="edge16" class="edge">
<title>n0x555997a89980&#45;&gt;n0x555997a89bc0</title>
<path fill="none" stroke="black" d="M1012.69,-71.7C1012.69,-63.98 1012.69,-54.71 1012.69,-46.11"/>
<polygon fill="black" stroke="black" points="1016.19,-46.1 1012.69,-36.1 1009.19,-46.1 1016.19,-46.1"/>
</g>
</g>
</svg>
