<?xml version="1.0" encoding="UTF-8" standalone="no"?>
<!DOCTYPE svg PUBLIC "-//W3C//DTD SVG 1.1//EN"
 "http://www.w3.org/Graphics/SVG/1.1/DTD/svg11.dtd">
<!-- Generated by graphviz version 2.43.0 (0)
 -->
<!-- Title: %3 Pages: 1 -->
<svg width="935pt" height="404pt"
 viewBox="0.00 0.00 935.32 404.00" xmlns="http://www.w3.org/2000/svg" xmlns:xlink="http://www.w3.org/1999/xlink">
<g id="graph0" class="graph" transform="scale(1 1) rotate(0) translate(4 400)">
<title>%3</title>
<polygon fill="white" stroke="transparent" points="-4,4 -4,-400 931.32,-400 931.32,4 -4,4"/>
<!-- n0x563d367d6330 -->
<g id="node1" class="node">
<title>n0x563d367d6330</title>
<ellipse fill="none" stroke="black" cx="430.69" cy="-378" rx="46.29" ry="18"/>
<text text-anchor="middle" x="430.69" y="-374.3" font-family="Helvetica,Arial,sans-serif" font-size="14.00">first_task</text>
</g>
<!-- n0x563d37211230 -->
<g id="node3" class="node">
<title>n0x563d37211230</title>
<ellipse fill="none" stroke="black" cx="141.69" cy="-306" rx="141.88" ry="18"/>
<text text-anchor="middle" x="141.69" y="-302.3" font-family="Helvetica,Arial,sans-serif" font-size="14.00"> StartReceiveBoundaryBuffers(...)</text>
</g>
<!-- n0x563d367d6330&#45;&gt;n0x563d37211230 -->
<g id="edge1" class="edge">
<title>n0x563d367d6330&#45;&gt;n0x563d37211230</title>
<path fill="none" stroke="black" d="M392.61,-367.78C347.42,-356.83 271.09,-338.34 214.45,-324.62"/>
<polygon fill="black" stroke="black" points="215.01,-321.16 204.47,-322.21 213.37,-327.96 215.01,-321.16"/>
</g>
<!-- n0x563d37211420 -->
<g id="node4" class="node">
<title>n0x563d37211420</title>
<ellipse fill="none" stroke="black" cx="430.69" cy="-306" rx="129.18" ry="18"/>
<text text-anchor="middle" x="430.69" y="-302.3" font-family="Helvetica,Arial,sans-serif" font-size="14.00"> SendBoundBufs&lt;bounds&gt;(...)</text>
</g>
<!-- n0x563d367d6330&#45;&gt;n0x563d37211420 -->
<g id="edge2" class="edge">
<title>n0x563d367d6330&#45;&gt;n0x563d37211420</title>
<path fill="none" stroke="black" d="M430.69,-359.7C430.69,-351.98 430.69,-342.71 430.69,-334.11"/>
<polygon fill="black" stroke="black" points="434.19,-334.1 430.69,-324.1 427.19,-334.1 434.19,-334.1"/>
</g>
<!-- n0x563d37211630 -->
<g id="node5" class="node">
<title>n0x563d37211630</title>
<ellipse fill="none" stroke="black" cx="718.69" cy="-306" rx="140.28" ry="18"/>
<text text-anchor="middle" x="718.69" y="-302.3" font-family="Helvetica,Arial,sans-serif" font-size="14.00"> ReceiveBoundBufs&lt;bounds&gt;(...)</text>
</g>
<!-- n0x563d367d6330&#45;&gt;n0x563d37211630 -->
<g id="edge3" class="edge">
<title>n0x563d367d6330&#45;&gt;n0x563d37211630</title>
<path fill="none" stroke="black" d="M465.53,-366.01C472.51,-363.92 479.81,-361.83 486.69,-360 536.99,-346.64 593.96,-333.59 638.86,-323.79"/>
<polygon fill="black" stroke="black" points="639.81,-327.16 648.83,-321.62 638.32,-320.32 639.81,-327.16"/>
</g>
<!-- n0x563d367d6450 -->
<g id="node2" class="node">
<title>n0x563d367d6450</title>
<ellipse fill="none" stroke="black" cx="540.69" cy="-378" rx="45.49" ry="18"/>
<text text-anchor="middle" x="540.69" y="-374.3" font-family="Helvetica,Arial,sans-serif" font-size="14.00">last_task</text>
</g>
<!-- n0x563d37211810 -->
<g id="node6" class="node">
<title>n0x563d37211810</title>
<ellipse fill="none" stroke="black" cx="718.69" cy="-234" rx="108.58" ry="18"/>
<text text-anchor="middle" x="718.69" y="-230.3" font-family="Helvetica,Arial,sans-serif" font-size="14.00"> SetBounds&lt;bounds&gt;(...)</text>
</g>
<!-- n0x563d37211630&#45;&gt;n0x563d37211810 -->
<g id="edge4" class="edge">
<title>n0x563d37211630&#45;&gt;n0x563d37211810</title>
<path fill="none" stroke="black" d="M718.69,-287.7C718.69,-279.98 718.69,-270.71 718.69,-262.11"/>
<polygon fill="black" stroke="black" points="722.19,-262.1 718.69,-252.1 715.19,-262.1 722.19,-262.1"/>
</g>
<!-- n0x563d37211a80 -->
<g id="node7" class="node">
<title>n0x563d37211a80</title>
<ellipse fill="none" stroke="black" cx="718.69" cy="-162" rx="208.76" ry="18"/>
<text text-anchor="middle" x="718.69" y="-158.3" font-family="Helvetica,Arial,sans-serif" font-size="14.00"> ApplyBoundaryConditionsOnCoarseOrFineMD(...)</text>
</g>
<!-- n0x563d37211810&#45;&gt;n0x563d37211a80 -->
<g id="edge5" class="edge">
<title>n0x563d37211810&#45;&gt;n0x563d37211a80</title>
<path fill="none" stroke="black" d="M718.69,-215.7C718.69,-207.98 718.69,-198.71 718.69,-190.11"/>
<polygon fill="black" stroke="black" points="722.19,-190.1 718.69,-180.1 715.19,-190.1 722.19,-190.1"/>
</g>
<!-- n0x563d37211cd0 -->
<g id="node8" class="node">
<title>n0x563d37211cd0</title>
<ellipse fill="none" stroke="black" cx="718.69" cy="-90" rx="137.58" ry="18"/>
<text text-anchor="middle" x="718.69" y="-86.3" font-family="Helvetica,Arial,sans-serif" font-size="14.00"> ProlongateBounds&lt;bounds&gt;(...)</text>
</g>
<!-- n0x563d37211a80&#45;&gt;n0x563d37211cd0 -->
<g id="edge6" class="edge">
<title>n0x563d37211a80&#45;&gt;n0x563d37211cd0</title>
<path fill="none" stroke="black" d="M718.69,-143.7C718.69,-135.98 718.69,-126.71 718.69,-118.11"/>
<polygon fill="black" stroke="black" points="722.19,-118.1 718.69,-108.1 715.19,-118.1 722.19,-118.1"/>
</g>
<!-- n0x563d37211f10 -->
<g id="node9" class="node">
<title>n0x563d37211f10</title>
<ellipse fill="none" stroke="black" cx="718.69" cy="-18" rx="208.76" ry="18"/>
<text text-anchor="middle" x="718.69" y="-14.3" font-family="Helvetica,Arial,sans-serif" font-size="14.00"> ApplyBoundaryConditionsOnCoarseOrFineMD(...)</text>
</g>
<!-- n0x563d37211cd0&#45;&gt;n0x563d37211f10 -->
<g id="edge7" class="edge">
<title>n0x563d37211cd0&#45;&gt;n0x563d37211f10</title>
<path fill="none" stroke="black" d="M718.69,-71.7C718.69,-63.98 718.69,-54.71 718.69,-46.11"/>
<polygon fill="black" stroke="black" points="722.19,-46.1 718.69,-36.1 715.19,-46.1 722.19,-46.1"/>
</g>
</g>
</svg>
