<?xml version="1.0" encoding="UTF-8" standalone="no"?>
<!DOCTYPE svg PUBLIC "-//W3C//DTD SVG 1.1//EN"
 "http://www.w3.org/Graphics/SVG/1.1/DTD/svg11.dtd">
<!-- Generated by graphviz version 2.43.0 (0)
 -->
<!-- Title: %3 Pages: 1 -->
<svg width="1372pt" height="980pt"
 viewBox="0.00 0.00 1371.68 980.00" xmlns="http://www.w3.org/2000/svg" xmlns:xlink="http://www.w3.org/1999/xlink">
<g id="graph0" class="graph" transform="scale(1 1) rotate(0) translate(4 976)">
<title>%3</title>
<polygon fill="white" stroke="transparent" points="-4,4 -4,-976 1367.68,-976 1367.68,4 -4,4"/>
<!-- n0x55fe6d8c63c0 -->
<g id="node1" class="node">
<title>n0x55fe6d8c63c0</title>
<ellipse fill="none" stroke="black" cx="438.69" cy="-954" rx="46.29" ry="18"/>
<text text-anchor="middle" x="438.69" y="-950.3" font-family="Helvetica,Arial,sans-serif" font-size="14.00">first_task</text>
</g>
<!-- n0x55fe6e300fb0 -->
<g id="node3" class="node">
<title>n0x55fe6e300fb0</title>
<ellipse fill="none" stroke="black" cx="141.69" cy="-882" rx="141.88" ry="18"/>
<text text-anchor="middle" x="141.69" y="-878.3" font-family="Helvetica,Arial,sans-serif" font-size="14.00"> StartReceiveBoundaryBuffers(...)</text>
</g>
<!-- n0x55fe6d8c63c0&#45;&gt;n0x55fe6e300fb0 -->
<g id="edge1" class="edge">
<title>n0x55fe6d8c63c0&#45;&gt;n0x55fe6e300fb0</title>
<path fill="none" stroke="black" d="M400.16,-943.92C353.58,-932.94 274.13,-914.22 215.59,-900.42"/>
<polygon fill="black" stroke="black" points="216.18,-896.96 205.65,-898.07 214.58,-903.77 216.18,-896.96"/>
</g>
<!-- n0x55fe6e3010f0 -->
<g id="node4" class="node">
<title>n0x55fe6e3010f0</title>
<ellipse fill="none" stroke="black" cx="438.69" cy="-882" rx="137.58" ry="18"/>
<text text-anchor="middle" x="438.69" y="-878.3" font-family="Helvetica,Arial,sans-serif" font-size="14.00"> StartReceiveFluxCorrections(...)</text>
</g>
<!-- n0x55fe6d8c63c0&#45;&gt;n0x55fe6e3010f0 -->
<g id="edge2" class="edge">
<title>n0x55fe6d8c63c0&#45;&gt;n0x55fe6e3010f0</title>
<path fill="none" stroke="black" d="M438.69,-935.7C438.69,-927.98 438.69,-918.71 438.69,-910.11"/>
<polygon fill="black" stroke="black" points="442.19,-910.1 438.69,-900.1 435.19,-910.1 442.19,-910.1"/>
</g>
<!-- n0x55fe6e301380 -->
<g id="node5" class="node">
<title>n0x55fe6e301380</title>
<ellipse fill="none" stroke="black" cx="709.69" cy="-882" rx="115.88" ry="18"/>
<text text-anchor="middle" x="709.69" y="-878.3" font-family="Helvetica,Arial,sans-serif" font-size="14.00"> hydro::CalculateFluxes(...)</text>
</g>
<!-- n0x55fe6d8c63c0&#45;&gt;n0x55fe6e301380 -->
<g id="edge3" class="edge">
<title>n0x55fe6d8c63c0&#45;&gt;n0x55fe6e301380</title>
<path fill="none" stroke="black" d="M473.56,-942.1C480.53,-940.01 487.83,-937.88 494.69,-936 542.22,-922.94 596.07,-909.66 637.99,-899.67"/>
<polygon fill="black" stroke="black" points="638.91,-903.05 647.83,-897.33 637.29,-896.24 638.91,-903.05"/>
</g>
<!-- n0x55fe6d8c64e0 -->
<g id="node2" class="node">
<title>n0x55fe6d8c64e0</title>
<ellipse fill="none" stroke="black" cx="548.69" cy="-954" rx="45.49" ry="18"/>
<text text-anchor="middle" x="548.69" y="-950.3" font-family="Helvetica,Arial,sans-serif" font-size="14.00">last_task</text>
</g>
<!-- n0x55fe6e301550 -->
<g id="node6" class="node">
<title>n0x55fe6e301550</title>
<ellipse fill="none" stroke="black" cx="709.69" cy="-810" rx="108.58" ry="18"/>
<text text-anchor="middle" x="709.69" y="-806.3" font-family="Helvetica,Arial,sans-serif" font-size="14.00"> hydro::CalculateEMF(...)</text>
</g>
<!-- n0x55fe6e301380&#45;&gt;n0x55fe6e301550 -->
<g id="edge4" class="edge">
<title>n0x55fe6e301380&#45;&gt;n0x55fe6e301550</title>
<path fill="none" stroke="black" d="M709.69,-863.7C709.69,-855.98 709.69,-846.71 709.69,-838.11"/>
<polygon fill="black" stroke="black" points="713.19,-838.1 709.69,-828.1 706.19,-838.1 713.19,-838.1"/>
</g>
<!-- n0x55fe6e3017b0 -->
<g id="node7" class="node">
<title>n0x55fe6e3017b0</title>
<ellipse fill="none" stroke="black" cx="550.69" cy="-738" rx="145.67" ry="18"/>
<text text-anchor="middle" x="550.69" y="-734.3" font-family="Helvetica,Arial,sans-serif" font-size="14.00"> SendBoundBufs&lt;flxcor_send&gt;(...)</text>
</g>
<!-- n0x55fe6e301550&#45;&gt;n0x55fe6e3017b0 -->
<g id="edge5" class="edge">
<title>n0x55fe6e301550&#45;&gt;n0x55fe6e3017b0</title>
<path fill="none" stroke="black" d="M673.21,-792.94C650.71,-783.03 621.63,-770.23 597.44,-759.58"/>
<polygon fill="black" stroke="black" points="598.66,-756.3 588.1,-755.47 595.84,-762.7 598.66,-756.3"/>
</g>
<!-- n0x55fe6e3019c0 -->
<g id="node8" class="node">
<title>n0x55fe6e3019c0</title>
<ellipse fill="none" stroke="black" cx="868.69" cy="-738" rx="154.07" ry="18"/>
<text text-anchor="middle" x="868.69" y="-734.3" font-family="Helvetica,Arial,sans-serif" font-size="14.00"> ReceiveBoundBufs&lt;flxcor_recv&gt;(...)</text>
</g>
<!-- n0x55fe6e301550&#45;&gt;n0x55fe6e3019c0 -->
<g id="edge6" class="edge">
<title>n0x55fe6e301550&#45;&gt;n0x55fe6e3019c0</title>
<path fill="none" stroke="black" d="M746.17,-792.94C768.67,-783.03 797.75,-770.23 821.93,-759.58"/>
<polygon fill="black" stroke="black" points="823.53,-762.7 831.28,-755.47 820.71,-756.3 823.53,-762.7"/>
</g>
<!-- n0x55fe6e301c40 -->
<g id="node9" class="node">
<title>n0x55fe6e301c40</title>
<ellipse fill="none" stroke="black" cx="868.69" cy="-666" rx="122.38" ry="18"/>
<text text-anchor="middle" x="868.69" y="-662.3" font-family="Helvetica,Arial,sans-serif" font-size="14.00"> SetBounds&lt;flxcor_recv&gt;(...)</text>
</g>
<!-- n0x55fe6e3019c0&#45;&gt;n0x55fe6e301c40 -->
<g id="edge7" class="edge">
<title>n0x55fe6e3019c0&#45;&gt;n0x55fe6e301c40</title>
<path fill="none" stroke="black" d="M868.69,-719.7C868.69,-711.98 868.69,-702.71 868.69,-694.11"/>
<polygon fill="black" stroke="black" points="872.19,-694.1 868.69,-684.1 865.19,-694.1 872.19,-694.1"/>
</g>
<!-- n0x55fe6e301f80 -->
<g id="node10" class="node">
<title>n0x55fe6e301f80</title>
<ellipse fill="none" stroke="black" cx="868.69" cy="-594" rx="100.98" ry="18"/>
<text text-anchor="middle" x="868.69" y="-590.3" font-family="Helvetica,Arial,sans-serif" font-size="14.00"> grid::FluxesToDuDt(...)</text>
</g>
<!-- n0x55fe6e301c40&#45;&gt;n0x55fe6e301f80 -->
<g id="edge8" class="edge">
<title>n0x55fe6e301c40&#45;&gt;n0x55fe6e301f80</title>
<path fill="none" stroke="black" d="M868.69,-647.7C868.69,-639.98 868.69,-630.71 868.69,-622.11"/>
<polygon fill="black" stroke="black" points="872.19,-622.1 868.69,-612.1 865.19,-622.1 872.19,-622.1"/>
</g>
<!-- n0x55fe6e302e90 -->
<g id="node11" class="node">
<title>n0x55fe6e302e90</title>
<ellipse fill="none" stroke="black" cx="499.69" cy="-522" rx="107.78" ry="18"/>
<text text-anchor="middle" x="499.69" y="-518.3" font-family="Helvetica,Arial,sans-serif" font-size="14.00"> grid::ApplyDuDt_Cell(...)</text>
</g>
<!-- n0x55fe6e301f80&#45;&gt;n0x55fe6e302e90 -->
<g id="edge9" class="edge">
<title>n0x55fe6e301f80&#45;&gt;n0x55fe6e302e90</title>
<path fill="none" stroke="black" d="M802.29,-580.4C739.33,-568.46 644.72,-550.51 578.08,-537.87"/>
<polygon fill="black" stroke="black" points="578.53,-534.39 568.05,-535.97 577.22,-541.27 578.53,-534.39"/>
</g>
<!-- n0x55fe6e303650 -->
<g id="node12" class="node">
<title>n0x55fe6e303650</title>
<ellipse fill="none" stroke="black" cx="742.69" cy="-522" rx="116.98" ry="18"/>
<text text-anchor="middle" x="742.69" y="-518.3" font-family="Helvetica,Arial,sans-serif" font-size="14.00"> grid::ApplyDuDt_Face1(...)</text>
</g>
<!-- n0x55fe6e301f80&#45;&gt;n0x55fe6e303650 -->
<g id="edge10" class="edge">
<title>n0x55fe6e301f80&#45;&gt;n0x55fe6e303650</title>
<path fill="none" stroke="black" d="M839.46,-576.76C822.22,-567.19 800.18,-554.94 781.5,-544.56"/>
<polygon fill="black" stroke="black" points="783.07,-541.43 772.63,-539.63 779.67,-547.55 783.07,-541.43"/>
</g>
<!-- n0x55fe6e303870 -->
<g id="node13" class="node">
<title>n0x55fe6e303870</title>
<ellipse fill="none" stroke="black" cx="994.69" cy="-522" rx="116.98" ry="18"/>
<text text-anchor="middle" x="994.69" y="-518.3" font-family="Helvetica,Arial,sans-serif" font-size="14.00"> grid::ApplyDuDt_Face2(...)</text>
</g>
<!-- n0x55fe6e301f80&#45;&gt;n0x55fe6e303870 -->
<g id="edge11" class="edge">
<title>n0x55fe6e301f80&#45;&gt;n0x55fe6e303870</title>
<path fill="none" stroke="black" d="M897.91,-576.76C915.15,-567.19 937.19,-554.94 955.88,-544.56"/>
<polygon fill="black" stroke="black" points="957.71,-547.55 964.75,-539.63 954.31,-541.43 957.71,-547.55"/>
</g>
<!-- n0x55fe6e303b50 -->
<g id="node14" class="node">
<title>n0x55fe6e303b50</title>
<ellipse fill="none" stroke="black" cx="1246.69" cy="-522" rx="116.98" ry="18"/>
<text text-anchor="middle" x="1246.69" y="-518.3" font-family="Helvetica,Arial,sans-serif" font-size="14.00"> grid::ApplyDuDt_Face3(...)</text>
</g>
<!-- n0x55fe6e301f80&#45;&gt;n0x55fe6e303b50 -->
<g id="edge12" class="edge">
<title>n0x55fe6e301f80&#45;&gt;n0x55fe6e303b50</title>
<path fill="none" stroke="black" d="M935.83,-580.57C999.93,-568.7 1096.63,-550.79 1165.13,-538.1"/>
<polygon fill="black" stroke="black" points="1165.83,-541.53 1175.03,-536.27 1164.56,-534.65 1165.83,-541.53"/>
</g>
<!-- n0x55fe6e303090 -->
<g id="node15" class="node">
<title>n0x55fe6e303090</title>
<ellipse fill="none" stroke="black" cx="868.69" cy="-450" rx="118.08" ry="18"/>
<text text-anchor="middle" x="868.69" y="-446.3" font-family="Helvetica,Arial,sans-serif" font-size="14.00"> hydro::PreparePrimitive(...)</text>
</g>
<!-- n0x55fe6e302e90&#45;&gt;n0x55fe6e303090 -->
<g id="edge13" class="edge">
<title>n0x55fe6e302e90&#45;&gt;n0x55fe6e303090</title>
<path fill="none" stroke="black" d="M568.23,-508C630.38,-496.21 722.05,-478.82 787.78,-466.35"/>
<polygon fill="black" stroke="black" points="788.51,-469.77 797.68,-464.47 787.21,-462.89 788.51,-469.77"/>
</g>
<!-- n0x55fe6e303650&#45;&gt;n0x55fe6e303090 -->
<g id="edge14" class="edge">
<title>n0x55fe6e303650&#45;&gt;n0x55fe6e303090</title>
<path fill="none" stroke="black" d="M772.55,-504.41C789.81,-494.82 811.71,-482.65 830.25,-472.36"/>
<polygon fill="black" stroke="black" points="832,-475.39 839.04,-467.47 828.6,-469.27 832,-475.39"/>
</g>
<!-- n0x55fe6e303870&#45;&gt;n0x55fe6e303090 -->
<g id="edge15" class="edge">
<title>n0x55fe6e303870&#45;&gt;n0x55fe6e303090</title>
<path fill="none" stroke="black" d="M964.83,-504.41C947.57,-494.82 925.67,-482.65 907.13,-472.36"/>
<polygon fill="black" stroke="black" points="908.77,-469.27 898.33,-467.47 905.38,-475.39 908.77,-469.27"/>
</g>
<!-- n0x55fe6e303b50&#45;&gt;n0x55fe6e303090 -->
<g id="edge16" class="edge">
<title>n0x55fe6e303b50&#45;&gt;n0x55fe6e303090</title>
<path fill="none" stroke="black" d="M1175.14,-507.75C1111.22,-495.91 1017.59,-478.57 950.67,-466.18"/>
<polygon fill="black" stroke="black" points="951.05,-462.69 940.58,-464.31 949.78,-469.58 951.05,-462.69"/>
</g>
<!-- n0x55fe6e302bb0 -->
<g id="node16" class="node">
<title>n0x55fe6e302bb0</title>
<ellipse fill="none" stroke="black" cx="868.69" cy="-378" rx="110.48" ry="18"/>
<text text-anchor="middle" x="868.69" y="-374.3" font-family="Helvetica,Arial,sans-serif" font-size="14.00"> eos::PreparePrimitive(...)</text>
</g>
<!-- n0x55fe6e303090&#45;&gt;n0x55fe6e302bb0 -->
<g id="edge17" class="edge">
<title>n0x55fe6e303090&#45;&gt;n0x55fe6e302bb0</title>
<path fill="none" stroke="black" d="M868.69,-431.7C868.69,-423.98 868.69,-414.71 868.69,-406.11"/>
<polygon fill="black" stroke="black" points="872.19,-406.1 868.69,-396.1 865.19,-406.1 872.19,-406.1"/>
</g>
<!-- n0x55fe6e303370 -->
<g id="node17" class="node">
<title>n0x55fe6e303370</title>
<ellipse fill="none" stroke="black" cx="724.69" cy="-306" rx="129.18" ry="18"/>
<text text-anchor="middle" x="724.69" y="-302.3" font-family="Helvetica,Arial,sans-serif" font-size="14.00"> SendBoundBufs&lt;bounds&gt;(...)</text>
</g>
<!-- n0x55fe6e302bb0&#45;&gt;n0x55fe6e303370 -->
<g id="edge18" class="edge">
<title>n0x55fe6e302bb0&#45;&gt;n0x55fe6e303370</title>
<path fill="none" stroke="black" d="M835.29,-360.76C815.08,-350.94 789.11,-338.32 767.41,-327.77"/>
<polygon fill="black" stroke="black" points="768.93,-324.61 758.4,-323.39 765.87,-330.91 768.93,-324.61"/>
</g>
<!-- n0x55fe6e303f70 -->
<g id="node18" class="node">
<title>n0x55fe6e303f70</title>
<ellipse fill="none" stroke="black" cx="1012.69" cy="-306" rx="140.28" ry="18"/>
<text text-anchor="middle" x="1012.69" y="-302.3" font-family="Helvetica,Arial,sans-serif" font-size="14.00"> ReceiveBoundBufs&lt;bounds&gt;(...)</text>
</g>
<!-- n0x55fe6e302bb0&#45;&gt;n0x55fe6e303f70 -->
<g id="edge19" class="edge">
<title>n0x55fe6e302bb0&#45;&gt;n0x55fe6e303f70</title>
<path fill="none" stroke="black" d="M902.09,-360.76C922.13,-351.02 947.85,-338.52 969.44,-328.02"/>
<polygon fill="black" stroke="black" points="971.26,-331.03 978.72,-323.51 968.2,-324.74 971.26,-331.03"/>
</g>
<!-- n0x55fe6e304090 -->
<g id="node19" class="node">
<title>n0x55fe6e304090</title>
<ellipse fill="none" stroke="black" cx="1012.69" cy="-234" rx="108.58" ry="18"/>
<text text-anchor="middle" x="1012.69" y="-230.3" font-family="Helvetica,Arial,sans-serif" font-size="14.00"> SetBounds&lt;bounds&gt;(...)</text>
</g>
<!-- n0x55fe6e303f70&#45;&gt;n0x55fe6e304090 -->
<g id="edge20" class="edge">
<title>n0x55fe6e303f70&#45;&gt;n0x55fe6e304090</title>
<path fill="none" stroke="black" d="M1012.69,-287.7C1012.69,-279.98 1012.69,-270.71 1012.69,-262.11"/>
<polygon fill="black" stroke="black" points="1016.19,-262.1 1012.69,-252.1 1009.19,-262.1 1016.19,-262.1"/>
</g>
<!-- n0x55fe6e3041b0 -->
<g id="node20" class="node">
<title>n0x55fe6e3041b0</title>
<ellipse fill="none" stroke="black" cx="1012.69" cy="-162" rx="208.76" ry="18"/>
<text text-anchor="middle" x="1012.69" y="-158.3" font-family="Helvetica,Arial,sans-serif" font-size="14.00"> ApplyBoundaryConditionsOnCoarseOrFineMD(...)</text>
</g>
<!-- n0x55fe6e304090&#45;&gt;n0x55fe6e3041b0 -->
<g id="edge21" class="edge">
<title>n0x55fe6e304090&#45;&gt;n0x55fe6e3041b0</title>
<path fill="none" stroke="black" d="M1012.69,-215.7C1012.69,-207.98 1012.69,-198.71 1012.69,-190.11"/>
<polygon fill="black" stroke="black" points="1016.19,-190.1 1012.69,-180.1 1009.19,-190.1 1016.19,-190.1"/>
</g>
<!-- n0x55fe6e3042d0 -->
<g id="node21" class="node">
<title>n0x55fe6e3042d0</title>
<ellipse fill="none" stroke="black" cx="1012.69" cy="-90" rx="137.58" ry="18"/>
<text text-anchor="middle" x="1012.69" y="-86.3" font-family="Helvetica,Arial,sans-serif" font-size="14.00"> ProlongateBounds&lt;bounds&gt;(...)</text>
</g>
<!-- n0x55fe6e3041b0&#45;&gt;n0x55fe6e3042d0 -->
<g id="edge22" class="edge">
<title>n0x55fe6e3041b0&#45;&gt;n0x55fe6e3042d0</title>
<path fill="none" stroke="black" d="M1012.69,-143.7C1012.69,-135.98 1012.69,-126.71 1012.69,-118.11"/>
<polygon fill="black" stroke="black" points="1016.19,-118.1 1012.69,-108.1 1009.19,-118.1 1016.19,-118.1"/>
</g>
<!-- n0x55fe6e3043f0 -->
<g id="node22" class="node">
<title>n0x55fe6e3043f0</title>
<ellipse fill="none" stroke="black" cx="1012.69" cy="-18" rx="208.76" ry="18"/>
<text text-anchor="middle" x="1012.69" y="-14.3" font-family="Helvetica,Arial,sans-serif" font-size="14.00"> ApplyBoundaryConditionsOnCoarseOrFineMD(...)</text>
</g>
<!-- n0x55fe6e3042d0&#45;&gt;n0x55fe6e3043f0 -->
<g id="edge23" class="edge">
<title>n0x55fe6e3042d0&#45;&gt;n0x55fe6e3043f0</title>
<path fill="none" stroke="black" d="M1012.69,-71.7C1012.69,-63.98 1012.69,-54.71 1012.69,-46.11"/>
<polygon fill="black" stroke="black" points="1016.19,-46.1 1012.69,-36.1 1009.19,-46.1 1016.19,-46.1"/>
</g>
</g>
</svg>
