<?xml version="1.0" encoding="UTF-8" standalone="no"?>
<!DOCTYPE svg PUBLIC "-//W3C//DTD SVG 1.1//EN"
 "http://www.w3.org/Graphics/SVG/1.1/DTD/svg11.dtd">
<!-- Generated by graphviz version 2.43.0 (0)
 -->
<!-- Title: %3 Pages: 1 -->
<svg width="1213pt" height="980pt"
 viewBox="0.00 0.00 1212.68 980.00" xmlns="http://www.w3.org/2000/svg" xmlns:xlink="http://www.w3.org/1999/xlink">
<g id="graph0" class="graph" transform="scale(1 1) rotate(0) translate(4 976)">
<title>%3</title>
<polygon fill="white" stroke="transparent" points="-4,4 -4,-976 1208.68,-976 1208.68,4 -4,4"/>
<!-- n0x5624122896c0 -->
<g id="node1" class="node">
<title>n0x5624122896c0</title>
<ellipse fill="none" stroke="black" cx="438.69" cy="-954" rx="46.29" ry="18"/>
<text text-anchor="middle" x="438.69" y="-950.3" font-family="Helvetica,Arial,sans-serif" font-size="14.00">first_task</text>
</g>
<!-- n0x562412289260 -->
<g id="node3" class="node">
<title>n0x562412289260</title>
<ellipse fill="none" stroke="black" cx="141.69" cy="-882" rx="141.88" ry="18"/>
<text text-anchor="middle" x="141.69" y="-878.3" font-family="Helvetica,Arial,sans-serif" font-size="14.00"> StartReceiveBoundaryBuffers(...)</text>
</g>
<!-- n0x5624122896c0&#45;&gt;n0x562412289260 -->
<g id="edge1" class="edge">
<title>n0x5624122896c0&#45;&gt;n0x562412289260</title>
<path fill="none" stroke="black" d="M400.16,-943.92C353.58,-932.94 274.13,-914.22 215.59,-900.42"/>
<polygon fill="black" stroke="black" points="216.18,-896.96 205.65,-898.07 214.58,-903.77 216.18,-896.96"/>
</g>
<!-- n0x562412289120 -->
<g id="node4" class="node">
<title>n0x562412289120</title>
<ellipse fill="none" stroke="black" cx="438.69" cy="-882" rx="137.58" ry="18"/>
<text text-anchor="middle" x="438.69" y="-878.3" font-family="Helvetica,Arial,sans-serif" font-size="14.00"> StartReceiveFluxCorrections(...)</text>
</g>
<!-- n0x5624122896c0&#45;&gt;n0x562412289120 -->
<g id="edge2" class="edge">
<title>n0x5624122896c0&#45;&gt;n0x562412289120</title>
<path fill="none" stroke="black" d="M438.69,-935.7C438.69,-927.98 438.69,-918.71 438.69,-910.11"/>
<polygon fill="black" stroke="black" points="442.19,-910.1 438.69,-900.1 435.19,-910.1 442.19,-910.1"/>
</g>
<!-- n0x562412288fe0 -->
<g id="node5" class="node">
<title>n0x562412288fe0</title>
<ellipse fill="none" stroke="black" cx="709.69" cy="-882" rx="115.88" ry="18"/>
<text text-anchor="middle" x="709.69" y="-878.3" font-family="Helvetica,Arial,sans-serif" font-size="14.00"> hydro::CalculateFluxes(...)</text>
</g>
<!-- n0x5624122896c0&#45;&gt;n0x562412288fe0 -->
<g id="edge3" class="edge">
<title>n0x5624122896c0&#45;&gt;n0x562412288fe0</title>
<path fill="none" stroke="black" d="M473.56,-942.1C480.53,-940.01 487.83,-937.88 494.69,-936 542.22,-922.94 596.07,-909.66 637.99,-899.67"/>
<polygon fill="black" stroke="black" points="638.91,-903.05 647.83,-897.33 637.29,-896.24 638.91,-903.05"/>
</g>
<!-- n0x5624122894e0 -->
<g id="node2" class="node">
<title>n0x5624122894e0</title>
<ellipse fill="none" stroke="black" cx="548.69" cy="-954" rx="45.49" ry="18"/>
<text text-anchor="middle" x="548.69" y="-950.3" font-family="Helvetica,Arial,sans-serif" font-size="14.00">last_task</text>
</g>
<!-- n0x562412916180 -->
<g id="node6" class="node">
<title>n0x562412916180</title>
<ellipse fill="none" stroke="black" cx="709.69" cy="-810" rx="108.58" ry="18"/>
<text text-anchor="middle" x="709.69" y="-806.3" font-family="Helvetica,Arial,sans-serif" font-size="14.00"> hydro::CalculateEMF(...)</text>
</g>
<!-- n0x562412288fe0&#45;&gt;n0x562412916180 -->
<g id="edge4" class="edge">
<title>n0x562412288fe0&#45;&gt;n0x562412916180</title>
<path fill="none" stroke="black" d="M709.69,-863.7C709.69,-855.98 709.69,-846.71 709.69,-838.11"/>
<polygon fill="black" stroke="black" points="713.19,-838.1 709.69,-828.1 706.19,-838.1 713.19,-838.1"/>
</g>
<!-- n0x5624129163a0 -->
<g id="node7" class="node">
<title>n0x5624129163a0</title>
<ellipse fill="none" stroke="black" cx="709.69" cy="-738" rx="100.98" ry="18"/>
<text text-anchor="middle" x="709.69" y="-734.3" font-family="Helvetica,Arial,sans-serif" font-size="14.00"> grid::FluxesToDuDt(...)</text>
</g>
<!-- n0x562412916180&#45;&gt;n0x5624129163a0 -->
<g id="edge5" class="edge">
<title>n0x562412916180&#45;&gt;n0x5624129163a0</title>
<path fill="none" stroke="black" d="M709.69,-791.7C709.69,-783.98 709.69,-774.71 709.69,-766.11"/>
<polygon fill="black" stroke="black" points="713.19,-766.1 709.69,-756.1 706.19,-766.1 713.19,-766.1"/>
</g>
<!-- n0x562412916640 -->
<g id="node8" class="node">
<title>n0x562412916640</title>
<ellipse fill="none" stroke="black" cx="709.69" cy="-666" rx="120.78" ry="18"/>
<text text-anchor="middle" x="709.69" y="-662.3" font-family="Helvetica,Arial,sans-serif" font-size="14.00"> hydro::AddSourceTerms(...)</text>
</g>
<!-- n0x5624129163a0&#45;&gt;n0x562412916640 -->
<g id="edge6" class="edge">
<title>n0x5624129163a0&#45;&gt;n0x562412916640</title>
<path fill="none" stroke="black" d="M709.69,-719.7C709.69,-711.98 709.69,-702.71 709.69,-694.11"/>
<polygon fill="black" stroke="black" points="713.19,-694.1 709.69,-684.1 706.19,-694.1 713.19,-694.1"/>
</g>
<!-- n0x562412916940 -->
<g id="node9" class="node">
<title>n0x562412916940</title>
<ellipse fill="none" stroke="black" cx="709.69" cy="-594" rx="136.48" ry="18"/>
<text text-anchor="middle" x="709.69" y="-590.3" font-family="Helvetica,Arial,sans-serif" font-size="14.00"> material::PrepareConserved(...)</text>
</g>
<!-- n0x562412916640&#45;&gt;n0x562412916940 -->
<g id="edge7" class="edge">
<title>n0x562412916640&#45;&gt;n0x562412916940</title>
<path fill="none" stroke="black" d="M709.69,-647.7C709.69,-639.98 709.69,-630.71 709.69,-622.11"/>
<polygon fill="black" stroke="black" points="713.19,-622.1 709.69,-612.1 706.19,-622.1 713.19,-622.1"/>
</g>
<!-- n0x562412916c20 -->
<g id="node10" class="node">
<title>n0x562412916c20</title>
<ellipse fill="none" stroke="black" cx="709.69" cy="-522" rx="126.98" ry="18"/>
<text text-anchor="middle" x="709.69" y="-518.3" font-family="Helvetica,Arial,sans-serif" font-size="14.00"> hydro::PrepareConserved(...)</text>
</g>
<!-- n0x562412916940&#45;&gt;n0x562412916c20 -->
<g id="edge8" class="edge">
<title>n0x562412916940&#45;&gt;n0x562412916c20</title>
<path fill="none" stroke="black" d="M709.69,-575.7C709.69,-567.98 709.69,-558.71 709.69,-550.11"/>
<polygon fill="black" stroke="black" points="713.19,-550.1 709.69,-540.1 706.19,-550.1 713.19,-550.1"/>
</g>
<!-- n0x562412918240 -->
<g id="node11" class="node">
<title>n0x562412918240</title>
<ellipse fill="none" stroke="black" cx="340.69" cy="-450" rx="107.78" ry="18"/>
<text text-anchor="middle" x="340.69" y="-446.3" font-family="Helvetica,Arial,sans-serif" font-size="14.00"> grid::ApplyDuDt_Cell(...)</text>
</g>
<!-- n0x562412916c20&#45;&gt;n0x562412918240 -->
<g id="edge9" class="edge">
<title>n0x562412916c20&#45;&gt;n0x562412918240</title>
<path fill="none" stroke="black" d="M636.78,-507.17C573.98,-495.26 483.55,-478.1 419.18,-465.89"/>
<polygon fill="black" stroke="black" points="419.55,-462.4 409.08,-463.97 418.25,-469.28 419.55,-462.4"/>
</g>
<!-- n0x562412919c70 -->
<g id="node12" class="node">
<title>n0x562412919c70</title>
<ellipse fill="none" stroke="black" cx="583.69" cy="-450" rx="116.98" ry="18"/>
<text text-anchor="middle" x="583.69" y="-446.3" font-family="Helvetica,Arial,sans-serif" font-size="14.00"> grid::ApplyDuDt_Face1(...)</text>
</g>
<!-- n0x562412916c20&#45;&gt;n0x562412919c70 -->
<g id="edge10" class="edge">
<title>n0x562412916c20&#45;&gt;n0x562412919c70</title>
<path fill="none" stroke="black" d="M679.83,-504.41C662.57,-494.82 640.67,-482.65 622.13,-472.36"/>
<polygon fill="black" stroke="black" points="623.77,-469.27 613.33,-467.47 620.38,-475.39 623.77,-469.27"/>
</g>
<!-- n0x562412919e20 -->
<g id="node13" class="node">
<title>n0x562412919e20</title>
<ellipse fill="none" stroke="black" cx="835.69" cy="-450" rx="116.98" ry="18"/>
<text text-anchor="middle" x="835.69" y="-446.3" font-family="Helvetica,Arial,sans-serif" font-size="14.00"> grid::ApplyDuDt_Face2(...)</text>
</g>
<!-- n0x562412916c20&#45;&gt;n0x562412919e20 -->
<g id="edge11" class="edge">
<title>n0x562412916c20&#45;&gt;n0x562412919e20</title>
<path fill="none" stroke="black" d="M739.55,-504.41C756.81,-494.82 778.71,-482.65 797.25,-472.36"/>
<polygon fill="black" stroke="black" points="799,-475.39 806.04,-467.47 795.6,-469.27 799,-475.39"/>
</g>
<!-- n0x56241291a000 -->
<g id="node14" class="node">
<title>n0x56241291a000</title>
<ellipse fill="none" stroke="black" cx="1087.69" cy="-450" rx="116.98" ry="18"/>
<text text-anchor="middle" x="1087.69" y="-446.3" font-family="Helvetica,Arial,sans-serif" font-size="14.00"> grid::ApplyDuDt_Face3(...)</text>
</g>
<!-- n0x562412916c20&#45;&gt;n0x56241291a000 -->
<g id="edge12" class="edge">
<title>n0x562412916c20&#45;&gt;n0x56241291a000</title>
<path fill="none" stroke="black" d="M783.47,-507.34C847.43,-495.49 939.87,-478.37 1006.04,-466.12"/>
<polygon fill="black" stroke="black" points="1006.82,-469.53 1016.02,-464.27 1005.55,-462.65 1006.82,-469.53"/>
</g>
<!-- n0x56241291a500 -->
<g id="node15" class="node">
<title>n0x56241291a500</title>
<ellipse fill="none" stroke="black" cx="709.69" cy="-378" rx="128.08" ry="18"/>
<text text-anchor="middle" x="709.69" y="-374.3" font-family="Helvetica,Arial,sans-serif" font-size="14.00"> material::PreparePrimitive(...)</text>
</g>
<!-- n0x562412918240&#45;&gt;n0x56241291a500 -->
<g id="edge13" class="edge">
<title>n0x562412918240&#45;&gt;n0x56241291a500</title>
<path fill="none" stroke="black" d="M409.23,-436C470.78,-424.32 561.3,-407.15 626.88,-394.71"/>
<polygon fill="black" stroke="black" points="627.6,-398.13 636.78,-392.83 626.3,-391.26 627.6,-398.13"/>
</g>
<!-- n0x562412919c70&#45;&gt;n0x56241291a500 -->
<g id="edge14" class="edge">
<title>n0x562412919c70&#45;&gt;n0x56241291a500</title>
<path fill="none" stroke="black" d="M613.55,-432.41C630.68,-422.89 652.39,-410.83 670.84,-400.58"/>
<polygon fill="black" stroke="black" points="672.56,-403.63 679.6,-395.71 669.16,-397.51 672.56,-403.63"/>
</g>
<!-- n0x562412919e20&#45;&gt;n0x56241291a500 -->
<g id="edge15" class="edge">
<title>n0x562412919e20&#45;&gt;n0x56241291a500</title>
<path fill="none" stroke="black" d="M805.83,-432.41C788.69,-422.89 766.98,-410.83 748.53,-400.58"/>
<polygon fill="black" stroke="black" points="750.21,-397.51 739.77,-395.71 746.81,-403.63 750.21,-397.51"/>
</g>
<!-- n0x56241291a000&#45;&gt;n0x56241291a500 -->
<g id="edge16" class="edge">
<title>n0x56241291a000&#45;&gt;n0x56241291a500</title>
<path fill="none" stroke="black" d="M1016.14,-435.75C952.93,-424.05 860.68,-406.96 793.92,-394.6"/>
<polygon fill="black" stroke="black" points="794.31,-391.11 783.84,-392.73 793.04,-398 794.31,-391.11"/>
</g>
<!-- n0x56241291a880 -->
<g id="node16" class="node">
<title>n0x56241291a880</title>
<ellipse fill="none" stroke="black" cx="709.69" cy="-306" rx="118.08" ry="18"/>
<text text-anchor="middle" x="709.69" y="-302.3" font-family="Helvetica,Arial,sans-serif" font-size="14.00"> hydro::PreparePrimitive(...)</text>
</g>
<!-- n0x56241291a500&#45;&gt;n0x56241291a880 -->
<g id="edge17" class="edge">
<title>n0x56241291a500&#45;&gt;n0x56241291a880</title>
<path fill="none" stroke="black" d="M709.69,-359.7C709.69,-351.98 709.69,-342.71 709.69,-334.11"/>
<polygon fill="black" stroke="black" points="713.19,-334.1 709.69,-324.1 706.19,-334.1 713.19,-334.1"/>
</g>
<!-- n0x56241291aa90 -->
<g id="node17" class="node">
<title>n0x56241291aa90</title>
<ellipse fill="none" stroke="black" cx="709.69" cy="-234" rx="110.48" ry="18"/>
<text text-anchor="middle" x="709.69" y="-230.3" font-family="Helvetica,Arial,sans-serif" font-size="14.00"> eos::PreparePrimitive(...)</text>
</g>
<!-- n0x56241291a880&#45;&gt;n0x56241291aa90 -->
<g id="edge18" class="edge">
<title>n0x56241291a880&#45;&gt;n0x56241291aa90</title>
<path fill="none" stroke="black" d="M709.69,-287.7C709.69,-279.98 709.69,-270.71 709.69,-262.11"/>
<polygon fill="black" stroke="black" points="713.19,-262.1 709.69,-252.1 706.19,-262.1 713.19,-262.1"/>
</g>
<!-- n0x5624129174b0 -->
<g id="node18" class="node">
<title>n0x5624129174b0</title>
<ellipse fill="none" stroke="black" cx="565.69" cy="-162" rx="129.18" ry="18"/>
<text text-anchor="middle" x="565.69" y="-158.3" font-family="Helvetica,Arial,sans-serif" font-size="14.00"> SendBoundBufs&lt;bounds&gt;(...)</text>
</g>
<!-- n0x56241291aa90&#45;&gt;n0x5624129174b0 -->
<g id="edge19" class="edge">
<title>n0x56241291aa90&#45;&gt;n0x5624129174b0</title>
<path fill="none" stroke="black" d="M676.29,-216.76C656.08,-206.94 630.11,-194.32 608.41,-183.77"/>
<polygon fill="black" stroke="black" points="609.93,-180.61 599.4,-179.39 606.87,-186.91 609.93,-180.61"/>
</g>
<!-- n0x562412917610 -->
<g id="node19" class="node">
<title>n0x562412917610</title>
<ellipse fill="none" stroke="black" cx="853.69" cy="-162" rx="140.28" ry="18"/>
<text text-anchor="middle" x="853.69" y="-158.3" font-family="Helvetica,Arial,sans-serif" font-size="14.00"> ReceiveBoundBufs&lt;bounds&gt;(...)</text>
</g>
<!-- n0x56241291aa90&#45;&gt;n0x562412917610 -->
<g id="edge20" class="edge">
<title>n0x56241291aa90&#45;&gt;n0x562412917610</title>
<path fill="none" stroke="black" d="M743.09,-216.76C763.13,-207.02 788.85,-194.52 810.44,-184.02"/>
<polygon fill="black" stroke="black" points="812.26,-187.03 819.72,-179.51 809.2,-180.74 812.26,-187.03"/>
</g>
<!-- n0x562412917820 -->
<g id="node20" class="node">
<title>n0x562412917820</title>
<ellipse fill="none" stroke="black" cx="853.69" cy="-90" rx="108.58" ry="18"/>
<text text-anchor="middle" x="853.69" y="-86.3" font-family="Helvetica,Arial,sans-serif" font-size="14.00"> SetBounds&lt;bounds&gt;(...)</text>
</g>
<!-- n0x562412917610&#45;&gt;n0x562412917820 -->
<g id="edge21" class="edge">
<title>n0x562412917610&#45;&gt;n0x562412917820</title>
<path fill="none" stroke="black" d="M853.69,-143.7C853.69,-135.98 853.69,-126.71 853.69,-118.11"/>
<polygon fill="black" stroke="black" points="857.19,-118.1 853.69,-108.1 850.19,-118.1 857.19,-118.1"/>
</g>
<!-- n0x562412919500 -->
<g id="node21" class="node">
<title>n0x562412919500</title>
<ellipse fill="none" stroke="black" cx="853.69" cy="-18" rx="64.19" ry="18"/>
<text text-anchor="middle" x="853.69" y="-14.3" font-family="Helvetica,Arial,sans-serif" font-size="14.00"> ApplyBCs(...)</text>
</g>
<!-- n0x562412917820&#45;&gt;n0x562412919500 -->
<g id="edge22" class="edge">
<title>n0x562412917820&#45;&gt;n0x562412919500</title>
<path fill="none" stroke="black" d="M853.69,-71.7C853.69,-63.98 853.69,-54.71 853.69,-46.11"/>
<polygon fill="black" stroke="black" points="857.19,-46.1 853.69,-36.1 850.19,-46.1 857.19,-46.1"/>
</g>
</g>
</svg>
