<?xml version="1.0" encoding="UTF-8" standalone="no"?>
<!DOCTYPE svg PUBLIC "-//W3C//DTD SVG 1.1//EN"
 "http://www.w3.org/Graphics/SVG/1.1/DTD/svg11.dtd">
<!-- Generated by graphviz version 12.2.1 (20241206.2353)
 -->
<!-- Pages: 1 -->
<svg width="1228pt" height="908pt"
 viewBox="0.00 0.00 1228.32 908.00" xmlns="http://www.w3.org/2000/svg" xmlns:xlink="http://www.w3.org/1999/xlink">
<g id="graph0" class="graph" transform="scale(1 1) rotate(0) translate(4 904)">
<polygon fill="white" stroke="none" points="-4,4 -4,-904 1224.32,-904 1224.32,4 -4,4"/>
<!-- n0x15d23b3f8 -->
<g id="node1" class="node">
<title>n0x15d23b3f8</title>
<ellipse fill="none" stroke="black" cx="438.52" cy="-882" rx="45.5" ry="18"/>
<text text-anchor="middle" x="438.52" y="-876.2" font-family="Helvetica,Arial,sans-serif" font-size="14.00">first_task</text>
</g>
<!-- n0x15be094c8 -->
<g id="node3" class="node">
<title>n0x15be094c8</title>
<ellipse fill="none" stroke="black" cx="141.52" cy="-810" rx="141.52" ry="18"/>
<text text-anchor="middle" x="141.52" y="-804.2" font-family="Helvetica,Arial,sans-serif" font-size="14.00"> StartReceiveBoundaryBuffers(...)</text>
</g>
<!-- n0x15d23b3f8&#45;&gt;n0x15be094c8 -->
<g id="edge1" class="edge">
<title>n0x15d23b3f8&#45;&gt;n0x15be094c8</title>
<path fill="none" stroke="black" d="M400,-871.92C354.07,-861.09 276.2,-842.74 217.91,-829"/>
<polygon fill="black" stroke="black" points="218.91,-825.64 208.37,-826.76 217.3,-832.46 218.91,-825.64"/>
</g>
<!-- n0x15be1d6f8 -->
<g id="node4" class="node">
<title>n0x15be1d6f8</title>
<ellipse fill="none" stroke="black" cx="438.52" cy="-810" rx="137.63" ry="18"/>
<text text-anchor="middle" x="438.52" y="-804.2" font-family="Helvetica,Arial,sans-serif" font-size="14.00"> StartReceiveFluxCorrections(...)</text>
</g>
<!-- n0x15d23b3f8&#45;&gt;n0x15be1d6f8 -->
<g id="edge2" class="edge">
<title>n0x15d23b3f8&#45;&gt;n0x15be1d6f8</title>
<path fill="none" stroke="black" d="M438.52,-863.7C438.52,-856.41 438.52,-847.73 438.52,-839.54"/>
<polygon fill="black" stroke="black" points="442.03,-839.62 438.52,-829.62 435.03,-839.62 442.03,-839.62"/>
</g>
<!-- n0x15be1d818 -->
<g id="node5" class="node">
<title>n0x15be1d818</title>
<ellipse fill="none" stroke="black" cx="709.52" cy="-810" rx="115.2" ry="18"/>
<text text-anchor="middle" x="709.52" y="-804.2" font-family="Helvetica,Arial,sans-serif" font-size="14.00"> hydro::CalculateFluxes(...)</text>
</g>
<!-- n0x15d23b3f8&#45;&gt;n0x15be1d818 -->
<g id="edge3" class="edge">
<title>n0x15d23b3f8&#45;&gt;n0x15be1d818</title>
<path fill="none" stroke="black" d="M473.05,-869.99C479.82,-867.92 486.88,-865.84 493.52,-864 540.39,-851.02 593.43,-837.98 635.22,-828.09"/>
<polygon fill="black" stroke="black" points="636.01,-831.49 644.94,-825.79 634.41,-824.68 636.01,-831.49"/>
</g>
<!-- n0x15d23bab8 -->
<g id="node2" class="node">
<title>n0x15d23bab8</title>
<ellipse fill="none" stroke="black" cx="547.52" cy="-882" rx="45.01" ry="18"/>
<text text-anchor="middle" x="547.52" y="-876.2" font-family="Helvetica,Arial,sans-serif" font-size="14.00">last_task</text>
</g>
<!-- n0x15be1d938 -->
<g id="node6" class="node">
<title>n0x15be1d938</title>
<ellipse fill="none" stroke="black" cx="550.52" cy="-738" rx="144.94" ry="18"/>
<text text-anchor="middle" x="550.52" y="-732.2" font-family="Helvetica,Arial,sans-serif" font-size="14.00"> SendBoundBufs&lt;flxcor_send&gt;(...)</text>
</g>
<!-- n0x15be1d818&#45;&gt;n0x15be1d938 -->
<g id="edge4" class="edge">
<title>n0x15be1d818&#45;&gt;n0x15be1d938</title>
<path fill="none" stroke="black" d="M672.25,-792.59C650.44,-782.99 622.65,-770.76 599.14,-760.4"/>
<polygon fill="black" stroke="black" points="600.62,-757.23 590.06,-756.41 597.8,-763.64 600.62,-757.23"/>
</g>
<!-- n0x15be1da58 -->
<g id="node7" class="node">
<title>n0x15be1da58</title>
<ellipse fill="none" stroke="black" cx="867.52" cy="-738" rx="153.71" ry="18"/>
<text text-anchor="middle" x="867.52" y="-732.2" font-family="Helvetica,Arial,sans-serif" font-size="14.00"> ReceiveBoundBufs&lt;flxcor_recv&gt;(...)</text>
</g>
<!-- n0x15be1d818&#45;&gt;n0x15be1da58 -->
<g id="edge5" class="edge">
<title>n0x15be1d818&#45;&gt;n0x15be1da58</title>
<path fill="none" stroke="black" d="M746.57,-792.59C768.16,-783.02 795.65,-770.84 818.96,-760.52"/>
<polygon fill="black" stroke="black" points="820.23,-763.78 827.96,-756.53 817.4,-757.38 820.23,-763.78"/>
</g>
<!-- n0x15be1db78 -->
<g id="node8" class="node">
<title>n0x15be1db78</title>
<ellipse fill="none" stroke="black" cx="867.52" cy="-666" rx="122.03" ry="18"/>
<text text-anchor="middle" x="867.52" y="-660.2" font-family="Helvetica,Arial,sans-serif" font-size="14.00"> SetBounds&lt;flxcor_recv&gt;(...)</text>
</g>
<!-- n0x15be1da58&#45;&gt;n0x15be1db78 -->
<g id="edge6" class="edge">
<title>n0x15be1da58&#45;&gt;n0x15be1db78</title>
<path fill="none" stroke="black" d="M867.52,-719.7C867.52,-712.41 867.52,-703.73 867.52,-695.54"/>
<polygon fill="black" stroke="black" points="871.03,-695.62 867.52,-685.62 864.03,-695.62 871.03,-695.62"/>
</g>
<!-- n0x15be1dc98 -->
<g id="node9" class="node">
<title>n0x15be1dc98</title>
<ellipse fill="none" stroke="black" cx="867.52" cy="-594" rx="100.58" ry="18"/>
<text text-anchor="middle" x="867.52" y="-588.2" font-family="Helvetica,Arial,sans-serif" font-size="14.00"> grid::FluxesToDuDt(...)</text>
</g>
<!-- n0x15be1db78&#45;&gt;n0x15be1dc98 -->
<g id="edge7" class="edge">
<title>n0x15be1db78&#45;&gt;n0x15be1dc98</title>
<path fill="none" stroke="black" d="M867.52,-647.7C867.52,-640.41 867.52,-631.73 867.52,-623.54"/>
<polygon fill="black" stroke="black" points="871.03,-623.62 867.52,-613.62 864.03,-623.62 871.03,-623.62"/>
</g>
<!-- n0x15be1ddb8 -->
<g id="node10" class="node">
<title>n0x15be1ddb8</title>
<ellipse fill="none" stroke="black" cx="867.52" cy="-522" rx="87.42" ry="18"/>
<text text-anchor="middle" x="867.52" y="-516.2" font-family="Helvetica,Arial,sans-serif" font-size="14.00"> grid::ApplyDuDt(...)</text>
</g>
<!-- n0x15be1dc98&#45;&gt;n0x15be1ddb8 -->
<g id="edge8" class="edge">
<title>n0x15be1dc98&#45;&gt;n0x15be1ddb8</title>
<path fill="none" stroke="black" d="M867.52,-575.7C867.52,-568.41 867.52,-559.73 867.52,-551.54"/>
<polygon fill="black" stroke="black" points="871.03,-551.62 867.52,-541.62 864.03,-551.62 871.03,-551.62"/>
</g>
<!-- n0x15be1ded8 -->
<g id="node11" class="node">
<title>n0x15be1ded8</title>
<ellipse fill="none" stroke="black" cx="867.52" cy="-450" rx="118.13" ry="18"/>
<text text-anchor="middle" x="867.52" y="-444.2" font-family="Helvetica,Arial,sans-serif" font-size="14.00"> hydro::PreparePrimitive(...)</text>
</g>
<!-- n0x15be1ddb8&#45;&gt;n0x15be1ded8 -->
<g id="edge9" class="edge">
<title>n0x15be1ddb8&#45;&gt;n0x15be1ded8</title>
<path fill="none" stroke="black" d="M867.52,-503.7C867.52,-496.41 867.52,-487.73 867.52,-479.54"/>
<polygon fill="black" stroke="black" points="871.03,-479.62 867.52,-469.62 864.03,-479.62 871.03,-479.62"/>
</g>
<!-- n0x15be1dff8 -->
<g id="node12" class="node">
<title>n0x15be1dff8</title>
<ellipse fill="none" stroke="black" cx="867.52" cy="-378" rx="110.33" ry="18"/>
<text text-anchor="middle" x="867.52" y="-372.2" font-family="Helvetica,Arial,sans-serif" font-size="14.00"> eos::PreparePrimitive(...)</text>
</g>
<!-- n0x15be1ded8&#45;&gt;n0x15be1dff8 -->
<g id="edge10" class="edge">
<title>n0x15be1ded8&#45;&gt;n0x15be1dff8</title>
<path fill="none" stroke="black" d="M867.52,-431.7C867.52,-424.41 867.52,-415.73 867.52,-407.54"/>
<polygon fill="black" stroke="black" points="871.03,-407.62 867.52,-397.62 864.03,-407.62 871.03,-407.62"/>
</g>
<!-- n0x15be1e118 -->
<g id="node13" class="node">
<title>n0x15be1e118</title>
<ellipse fill="none" stroke="black" cx="724.52" cy="-306" rx="128.85" ry="18"/>
<text text-anchor="middle" x="724.52" y="-300.2" font-family="Helvetica,Arial,sans-serif" font-size="14.00"> SendBoundBufs&lt;bounds&gt;(...)</text>
</g>
<!-- n0x15be1dff8&#45;&gt;n0x15be1e118 -->
<g id="edge11" class="edge">
<title>n0x15be1dff8&#45;&gt;n0x15be1e118</title>
<path fill="none" stroke="black" d="M833.64,-360.41C814.28,-350.93 789.77,-338.94 768.9,-328.72"/>
<polygon fill="black" stroke="black" points="770.55,-325.63 760.03,-324.38 767.47,-331.92 770.55,-325.63"/>
</g>
<!-- n0x15be1e238 -->
<g id="node14" class="node">
<title>n0x15be1e238</title>
<ellipse fill="none" stroke="black" cx="1011.52" cy="-306" rx="140.06" ry="18"/>
<text text-anchor="middle" x="1011.52" y="-300.2" font-family="Helvetica,Arial,sans-serif" font-size="14.00"> ReceiveBoundBufs&lt;bounds&gt;(...)</text>
</g>
<!-- n0x15be1dff8&#45;&gt;n0x15be1e238 -->
<g id="edge12" class="edge">
<title>n0x15be1dff8&#45;&gt;n0x15be1e238</title>
<path fill="none" stroke="black" d="M901.65,-360.41C921.15,-350.93 945.82,-338.94 966.84,-328.72"/>
<polygon fill="black" stroke="black" points="968.32,-331.89 975.78,-324.37 965.26,-325.6 968.32,-331.89"/>
</g>
<!-- n0x15be1e358 -->
<g id="node15" class="node">
<title>n0x15be1e358</title>
<ellipse fill="none" stroke="black" cx="1011.52" cy="-234" rx="108.38" ry="18"/>
<text text-anchor="middle" x="1011.52" y="-228.2" font-family="Helvetica,Arial,sans-serif" font-size="14.00"> SetBounds&lt;bounds&gt;(...)</text>
</g>
<!-- n0x15be1e238&#45;&gt;n0x15be1e358 -->
<g id="edge13" class="edge">
<title>n0x15be1e238&#45;&gt;n0x15be1e358</title>
<path fill="none" stroke="black" d="M1011.52,-287.7C1011.52,-280.41 1011.52,-271.73 1011.52,-263.54"/>
<polygon fill="black" stroke="black" points="1015.03,-263.62 1011.52,-253.62 1008.03,-263.62 1015.03,-263.62"/>
</g>
<!-- n0x15be1e478 -->
<g id="node16" class="node">
<title>n0x15be1e478</title>
<ellipse fill="none" stroke="black" cx="1011.52" cy="-162" rx="208.79" ry="18"/>
<text text-anchor="middle" x="1011.52" y="-156.2" font-family="Helvetica,Arial,sans-serif" font-size="14.00"> ApplyBoundaryConditionsOnCoarseOrFineMD(...)</text>
</g>
<!-- n0x15be1e358&#45;&gt;n0x15be1e478 -->
<g id="edge14" class="edge">
<title>n0x15be1e358&#45;&gt;n0x15be1e478</title>
<path fill="none" stroke="black" d="M1011.52,-215.7C1011.52,-208.41 1011.52,-199.73 1011.52,-191.54"/>
<polygon fill="black" stroke="black" points="1015.03,-191.62 1011.52,-181.62 1008.03,-191.62 1015.03,-191.62"/>
</g>
<!-- n0x15be1e598 -->
<g id="node17" class="node">
<title>n0x15be1e598</title>
<ellipse fill="none" stroke="black" cx="1011.52" cy="-90" rx="137.63" ry="18"/>
<text text-anchor="middle" x="1011.52" y="-84.2" font-family="Helvetica,Arial,sans-serif" font-size="14.00"> ProlongateBounds&lt;bounds&gt;(...)</text>
</g>
<!-- n0x15be1e478&#45;&gt;n0x15be1e598 -->
<g id="edge15" class="edge">
<title>n0x15be1e478&#45;&gt;n0x15be1e598</title>
<path fill="none" stroke="black" d="M1011.52,-143.7C1011.52,-136.41 1011.52,-127.73 1011.52,-119.54"/>
<polygon fill="black" stroke="black" points="1015.03,-119.62 1011.52,-109.62 1008.03,-119.62 1015.03,-119.62"/>
</g>
<!-- n0x15be1e8b8 -->
<g id="node18" class="node">
<title>n0x15be1e8b8</title>
<ellipse fill="none" stroke="black" cx="1011.52" cy="-18" rx="208.79" ry="18"/>
<text text-anchor="middle" x="1011.52" y="-12.2" font-family="Helvetica,Arial,sans-serif" font-size="14.00"> ApplyBoundaryConditionsOnCoarseOrFineMD(...)</text>
</g>
<!-- n0x15be1e598&#45;&gt;n0x15be1e8b8 -->
<g id="edge16" class="edge">
<title>n0x15be1e598&#45;&gt;n0x15be1e8b8</title>
<path fill="none" stroke="black" d="M1011.52,-71.7C1011.52,-64.41 1011.52,-55.73 1011.52,-47.54"/>
<polygon fill="black" stroke="black" points="1015.03,-47.62 1011.52,-37.62 1008.03,-47.62 1015.03,-47.62"/>
</g>
</g>
</svg>
