<?xml version="1.0" encoding="UTF-8" standalone="no"?>
<!DOCTYPE svg PUBLIC "-//W3C//DTD SVG 1.1//EN"
 "http://www.w3.org/Graphics/SVG/1.1/DTD/svg11.dtd">
<!-- Generated by graphviz version 2.43.0 (0)
 -->
<!-- Title: %3 Pages: 1 -->
<svg width="1200pt" height="836pt"
 viewBox="0.00 0.00 1199.68 836.00" xmlns="http://www.w3.org/2000/svg" xmlns:xlink="http://www.w3.org/1999/xlink">
<g id="graph0" class="graph" transform="scale(1 1) rotate(0) translate(4 832)">
<title>%3</title>
<polygon fill="white" stroke="transparent" points="-4,4 -4,-832 1195.68,-832 1195.68,4 -4,4"/>
<!-- n0x55aa876af4c0 -->
<g id="node1" class="node">
<title>n0x55aa876af4c0</title>
<ellipse fill="none" stroke="black" cx="438.69" cy="-810" rx="46.29" ry="18"/>
<text text-anchor="middle" x="438.69" y="-806.3" font-family="Helvetica,Arial,sans-serif" font-size="14.00">first_task</text>
</g>
<!-- n0x55aa87ce5520 -->
<g id="node3" class="node">
<title>n0x55aa87ce5520</title>
<ellipse fill="none" stroke="black" cx="141.69" cy="-738" rx="141.88" ry="18"/>
<text text-anchor="middle" x="141.69" y="-734.3" font-family="Helvetica,Arial,sans-serif" font-size="14.00"> StartReceiveBoundaryBuffers(...)</text>
</g>
<!-- n0x55aa876af4c0&#45;&gt;n0x55aa87ce5520 -->
<g id="edge1" class="edge">
<title>n0x55aa876af4c0&#45;&gt;n0x55aa87ce5520</title>
<path fill="none" stroke="black" d="M400.16,-799.92C353.58,-788.94 274.13,-770.22 215.59,-756.42"/>
<polygon fill="black" stroke="black" points="216.18,-752.96 205.65,-754.07 214.58,-759.77 216.18,-752.96"/>
</g>
<!-- n0x55aa87ce5770 -->
<g id="node4" class="node">
<title>n0x55aa87ce5770</title>
<ellipse fill="none" stroke="black" cx="438.69" cy="-738" rx="137.58" ry="18"/>
<text text-anchor="middle" x="438.69" y="-734.3" font-family="Helvetica,Arial,sans-serif" font-size="14.00"> StartReceiveFluxCorrections(...)</text>
</g>
<!-- n0x55aa876af4c0&#45;&gt;n0x55aa87ce5770 -->
<g id="edge2" class="edge">
<title>n0x55aa876af4c0&#45;&gt;n0x55aa87ce5770</title>
<path fill="none" stroke="black" d="M438.69,-791.7C438.69,-783.98 438.69,-774.71 438.69,-766.11"/>
<polygon fill="black" stroke="black" points="442.19,-766.1 438.69,-756.1 435.19,-766.1 442.19,-766.1"/>
</g>
<!-- n0x55aa87ce59f0 -->
<g id="node5" class="node">
<title>n0x55aa87ce59f0</title>
<ellipse fill="none" stroke="black" cx="709.69" cy="-738" rx="115.88" ry="18"/>
<text text-anchor="middle" x="709.69" y="-734.3" font-family="Helvetica,Arial,sans-serif" font-size="14.00"> hydro::CalculateFluxes(...)</text>
</g>
<!-- n0x55aa876af4c0&#45;&gt;n0x55aa87ce59f0 -->
<g id="edge3" class="edge">
<title>n0x55aa876af4c0&#45;&gt;n0x55aa87ce59f0</title>
<path fill="none" stroke="black" d="M473.56,-798.1C480.53,-796.01 487.83,-793.88 494.69,-792 542.22,-778.94 596.07,-765.66 637.99,-755.67"/>
<polygon fill="black" stroke="black" points="638.91,-759.05 647.83,-753.33 637.29,-752.24 638.91,-759.05"/>
</g>
<!-- n0x55aa876af5e0 -->
<g id="node2" class="node">
<title>n0x55aa876af5e0</title>
<ellipse fill="none" stroke="black" cx="548.69" cy="-810" rx="45.49" ry="18"/>
<text text-anchor="middle" x="548.69" y="-806.3" font-family="Helvetica,Arial,sans-serif" font-size="14.00">last_task</text>
</g>
<!-- n0x55aa87ce5c30 -->
<g id="node6" class="node">
<title>n0x55aa87ce5c30</title>
<ellipse fill="none" stroke="black" cx="709.69" cy="-666" rx="108.58" ry="18"/>
<text text-anchor="middle" x="709.69" y="-662.3" font-family="Helvetica,Arial,sans-serif" font-size="14.00"> hydro::CalculateEMF(...)</text>
</g>
<!-- n0x55aa87ce59f0&#45;&gt;n0x55aa87ce5c30 -->
<g id="edge4" class="edge">
<title>n0x55aa87ce59f0&#45;&gt;n0x55aa87ce5c30</title>
<path fill="none" stroke="black" d="M709.69,-719.7C709.69,-711.98 709.69,-702.71 709.69,-694.11"/>
<polygon fill="black" stroke="black" points="713.19,-694.1 709.69,-684.1 706.19,-694.1 713.19,-694.1"/>
</g>
<!-- n0x55aa87ce5f50 -->
<g id="node7" class="node">
<title>n0x55aa87ce5f50</title>
<ellipse fill="none" stroke="black" cx="572.69" cy="-522" rx="136.48" ry="18"/>
<text text-anchor="middle" x="572.69" y="-518.3" font-family="Helvetica,Arial,sans-serif" font-size="14.00"> material::PrepareConserved(...)</text>
</g>
<!-- n0x55aa87ce5c30&#45;&gt;n0x55aa87ce5f50 -->
<g id="edge5" class="edge">
<title>n0x55aa87ce5c30&#45;&gt;n0x55aa87ce5f50</title>
<path fill="none" stroke="black" d="M693.43,-648.15C669.36,-623.2 624.09,-576.28 596.34,-547.52"/>
<polygon fill="black" stroke="black" points="598.81,-545.03 589.35,-540.27 593.77,-549.89 598.81,-545.03"/>
</g>
<!-- n0x55aa87ce61b0 -->
<g id="node8" class="node">
<title>n0x55aa87ce61b0</title>
<ellipse fill="none" stroke="black" cx="810.69" cy="-594" rx="100.98" ry="18"/>
<text text-anchor="middle" x="810.69" y="-590.3" font-family="Helvetica,Arial,sans-serif" font-size="14.00"> grid::FluxesToDuDt(...)</text>
</g>
<!-- n0x55aa87ce5c30&#45;&gt;n0x55aa87ce61b0 -->
<g id="edge6" class="edge">
<title>n0x55aa87ce5c30&#45;&gt;n0x55aa87ce61b0</title>
<path fill="none" stroke="black" d="M733.62,-648.41C746.98,-639.15 763.81,-627.49 778.33,-617.42"/>
<polygon fill="black" stroke="black" points="780.35,-620.29 786.57,-611.71 776.36,-614.53 780.35,-620.29"/>
</g>
<!-- n0x55aa87ce6e20 -->
<g id="node10" class="node">
<title>n0x55aa87ce6e20</title>
<ellipse fill="none" stroke="black" cx="831.69" cy="-450" rx="107.78" ry="18"/>
<text text-anchor="middle" x="831.69" y="-446.3" font-family="Helvetica,Arial,sans-serif" font-size="14.00"> grid::ApplyDuDt_Cell(...)</text>
</g>
<!-- n0x55aa87ce5f50&#45;&gt;n0x55aa87ce6e20 -->
<g id="edge7" class="edge">
<title>n0x55aa87ce5f50&#45;&gt;n0x55aa87ce6e20</title>
<path fill="none" stroke="black" d="M629.85,-505.55C670.53,-494.56 725.24,-479.77 767.44,-468.36"/>
<polygon fill="black" stroke="black" points="768.59,-471.68 777.33,-465.69 766.77,-464.92 768.59,-471.68"/>
</g>
<!-- n0x55aa87ce7b20 -->
<g id="node11" class="node">
<title>n0x55aa87ce7b20</title>
<ellipse fill="none" stroke="black" cx="1074.69" cy="-450" rx="116.98" ry="18"/>
<text text-anchor="middle" x="1074.69" y="-446.3" font-family="Helvetica,Arial,sans-serif" font-size="14.00"> grid::ApplyDuDt_Face1(...)</text>
</g>
<!-- n0x55aa87ce5f50&#45;&gt;n0x55aa87ce7b20 -->
<g id="edge8" class="edge">
<title>n0x55aa87ce5f50&#45;&gt;n0x55aa87ce7b20</title>
<path fill="none" stroke="black" d="M662.72,-508.45C752.61,-495.91 890.12,-476.74 981.2,-464.04"/>
<polygon fill="black" stroke="black" points="981.82,-467.48 991.24,-462.64 980.85,-460.55 981.82,-467.48"/>
</g>
<!-- n0x55aa87ce7140 -->
<g id="node12" class="node">
<title>n0x55aa87ce7140</title>
<ellipse fill="none" stroke="black" cx="336.69" cy="-450" rx="116.98" ry="18"/>
<text text-anchor="middle" x="336.69" y="-446.3" font-family="Helvetica,Arial,sans-serif" font-size="14.00"> grid::ApplyDuDt_Face2(...)</text>
</g>
<!-- n0x55aa87ce5f50&#45;&gt;n0x55aa87ce7140 -->
<g id="edge9" class="edge">
<title>n0x55aa87ce5f50&#45;&gt;n0x55aa87ce7140</title>
<path fill="none" stroke="black" d="M520.02,-505.38C483.85,-494.65 435.73,-480.38 397.87,-469.15"/>
<polygon fill="black" stroke="black" points="398.56,-465.7 387.98,-466.21 396.57,-472.41 398.56,-465.7"/>
</g>
<!-- n0x55aa87ce7420 -->
<g id="node13" class="node">
<title>n0x55aa87ce7420</title>
<ellipse fill="none" stroke="black" cx="588.69" cy="-450" rx="116.98" ry="18"/>
<text text-anchor="middle" x="588.69" y="-446.3" font-family="Helvetica,Arial,sans-serif" font-size="14.00"> grid::ApplyDuDt_Face3(...)</text>
</g>
<!-- n0x55aa87ce5f50&#45;&gt;n0x55aa87ce7420 -->
<g id="edge10" class="edge">
<title>n0x55aa87ce5f50&#45;&gt;n0x55aa87ce7420</title>
<path fill="none" stroke="black" d="M576.64,-503.7C578.41,-495.98 580.52,-486.71 582.49,-478.11"/>
<polygon fill="black" stroke="black" points="585.96,-478.63 584.78,-468.1 579.14,-477.07 585.96,-478.63"/>
</g>
<!-- n0x55aa87ce63c0 -->
<g id="node9" class="node">
<title>n0x55aa87ce63c0</title>
<ellipse fill="none" stroke="black" cx="847.69" cy="-522" rx="120.78" ry="18"/>
<text text-anchor="middle" x="847.69" y="-518.3" font-family="Helvetica,Arial,sans-serif" font-size="14.00"> hydro::AddSourceTerms(...)</text>
</g>
<!-- n0x55aa87ce61b0&#45;&gt;n0x55aa87ce63c0 -->
<g id="edge11" class="edge">
<title>n0x55aa87ce61b0&#45;&gt;n0x55aa87ce63c0</title>
<path fill="none" stroke="black" d="M819.64,-576.05C823.9,-568.01 829.08,-558.2 833.83,-549.23"/>
<polygon fill="black" stroke="black" points="836.98,-550.75 838.56,-540.28 830.79,-547.48 836.98,-550.75"/>
</g>
<!-- n0x55aa87ce63c0&#45;&gt;n0x55aa87ce6e20 -->
<g id="edge12" class="edge">
<title>n0x55aa87ce63c0&#45;&gt;n0x55aa87ce6e20</title>
<path fill="none" stroke="black" d="M843.73,-503.7C841.97,-495.98 839.85,-486.71 837.88,-478.11"/>
<polygon fill="black" stroke="black" points="841.24,-477.07 835.6,-468.1 834.41,-478.63 841.24,-477.07"/>
</g>
<!-- n0x55aa87ce63c0&#45;&gt;n0x55aa87ce7b20 -->
<g id="edge13" class="edge">
<title>n0x55aa87ce63c0&#45;&gt;n0x55aa87ce7b20</title>
<path fill="none" stroke="black" d="M897.78,-505.55C932.28,-494.92 978.27,-480.73 1014.71,-469.5"/>
<polygon fill="black" stroke="black" points="1016.19,-472.7 1024.72,-466.41 1014.13,-466.01 1016.19,-472.7"/>
</g>
<!-- n0x55aa87ce63c0&#45;&gt;n0x55aa87ce7140 -->
<g id="edge14" class="edge">
<title>n0x55aa87ce63c0&#45;&gt;n0x55aa87ce7140</title>
<path fill="none" stroke="black" d="M761.87,-509.24C670.4,-496.71 525.96,-476.93 431.27,-463.96"/>
<polygon fill="black" stroke="black" points="431.5,-460.46 421.12,-462.57 430.55,-467.39 431.5,-460.46"/>
</g>
<!-- n0x55aa87ce63c0&#45;&gt;n0x55aa87ce7420 -->
<g id="edge15" class="edge">
<title>n0x55aa87ce63c0&#45;&gt;n0x55aa87ce7420</title>
<path fill="none" stroke="black" d="M792.13,-505.98C751.58,-495.03 696.5,-480.14 653.88,-468.62"/>
<polygon fill="black" stroke="black" points="654.72,-465.22 644.16,-465.99 652.9,-471.98 654.72,-465.22"/>
</g>
<!-- n0x55aa87ce7850 -->
<g id="node14" class="node">
<title>n0x55aa87ce7850</title>
<ellipse fill="none" stroke="black" cx="709.69" cy="-378" rx="128.08" ry="18"/>
<text text-anchor="middle" x="709.69" y="-374.3" font-family="Helvetica,Arial,sans-serif" font-size="14.00"> material::PreparePrimitive(...)</text>
</g>
<!-- n0x55aa87ce6e20&#45;&gt;n0x55aa87ce7850 -->
<g id="edge16" class="edge">
<title>n0x55aa87ce6e20&#45;&gt;n0x55aa87ce7850</title>
<path fill="none" stroke="black" d="M803.08,-432.59C786.53,-423.09 765.49,-411.02 747.58,-400.74"/>
<polygon fill="black" stroke="black" points="748.95,-397.49 738.53,-395.55 745.47,-403.56 748.95,-397.49"/>
</g>
<!-- n0x55aa87ce7b20&#45;&gt;n0x55aa87ce7850 -->
<g id="edge17" class="edge">
<title>n0x55aa87ce7b20&#45;&gt;n0x55aa87ce7850</title>
<path fill="none" stroke="black" d="M1004.31,-435.5C943.65,-423.87 856,-407.06 792.08,-394.8"/>
<polygon fill="black" stroke="black" points="792.51,-391.32 782.03,-392.87 791.19,-398.2 792.51,-391.32"/>
</g>
<!-- n0x55aa87ce7140&#45;&gt;n0x55aa87ce7850 -->
<g id="edge18" class="edge">
<title>n0x55aa87ce7140&#45;&gt;n0x55aa87ce7850</title>
<path fill="none" stroke="black" d="M407.72,-435.67C470.05,-423.97 560.74,-406.95 626.45,-394.62"/>
<polygon fill="black" stroke="black" points="627.18,-398.04 636.37,-392.76 625.89,-391.16 627.18,-398.04"/>
</g>
<!-- n0x55aa87ce7420&#45;&gt;n0x55aa87ce7850 -->
<g id="edge19" class="edge">
<title>n0x55aa87ce7420&#45;&gt;n0x55aa87ce7850</title>
<path fill="none" stroke="black" d="M617.36,-432.41C633.67,-422.98 654.29,-411.05 671.9,-400.86"/>
<polygon fill="black" stroke="black" points="673.9,-403.75 680.8,-395.71 670.39,-397.69 673.9,-403.75"/>
</g>
<!-- n0x55aa87ce7ec0 -->
<g id="node15" class="node">
<title>n0x55aa87ce7ec0</title>
<ellipse fill="none" stroke="black" cx="709.69" cy="-306" rx="118.08" ry="18"/>
<text text-anchor="middle" x="709.69" y="-302.3" font-family="Helvetica,Arial,sans-serif" font-size="14.00"> hydro::PreparePrimitive(...)</text>
</g>
<!-- n0x55aa87ce7850&#45;&gt;n0x55aa87ce7ec0 -->
<g id="edge20" class="edge">
<title>n0x55aa87ce7850&#45;&gt;n0x55aa87ce7ec0</title>
<path fill="none" stroke="black" d="M709.69,-359.7C709.69,-351.98 709.69,-342.71 709.69,-334.11"/>
<polygon fill="black" stroke="black" points="713.19,-334.1 709.69,-324.1 706.19,-334.1 713.19,-334.1"/>
</g>
<!-- n0x55aa87ce8050 -->
<g id="node16" class="node">
<title>n0x55aa87ce8050</title>
<ellipse fill="none" stroke="black" cx="709.69" cy="-234" rx="110.48" ry="18"/>
<text text-anchor="middle" x="709.69" y="-230.3" font-family="Helvetica,Arial,sans-serif" font-size="14.00"> eos::PreparePrimitive(...)</text>
</g>
<!-- n0x55aa87ce7ec0&#45;&gt;n0x55aa87ce8050 -->
<g id="edge21" class="edge">
<title>n0x55aa87ce7ec0&#45;&gt;n0x55aa87ce8050</title>
<path fill="none" stroke="black" d="M709.69,-287.7C709.69,-279.98 709.69,-270.71 709.69,-262.11"/>
<polygon fill="black" stroke="black" points="713.19,-262.1 709.69,-252.1 706.19,-262.1 713.19,-262.1"/>
</g>
<!-- n0x55aa87ce81e0 -->
<g id="node17" class="node">
<title>n0x55aa87ce81e0</title>
<ellipse fill="none" stroke="black" cx="565.69" cy="-162" rx="129.18" ry="18"/>
<text text-anchor="middle" x="565.69" y="-158.3" font-family="Helvetica,Arial,sans-serif" font-size="14.00"> SendBoundBufs&lt;bounds&gt;(...)</text>
</g>
<!-- n0x55aa87ce8050&#45;&gt;n0x55aa87ce81e0 -->
<g id="edge22" class="edge">
<title>n0x55aa87ce8050&#45;&gt;n0x55aa87ce81e0</title>
<path fill="none" stroke="black" d="M676.29,-216.76C656.08,-206.94 630.11,-194.32 608.41,-183.77"/>
<polygon fill="black" stroke="black" points="609.93,-180.61 599.4,-179.39 606.87,-186.91 609.93,-180.61"/>
</g>
<!-- n0x55aa87ce8300 -->
<g id="node18" class="node">
<title>n0x55aa87ce8300</title>
<ellipse fill="none" stroke="black" cx="853.69" cy="-162" rx="140.28" ry="18"/>
<text text-anchor="middle" x="853.69" y="-158.3" font-family="Helvetica,Arial,sans-serif" font-size="14.00"> ReceiveBoundBufs&lt;bounds&gt;(...)</text>
</g>
<!-- n0x55aa87ce8050&#45;&gt;n0x55aa87ce8300 -->
<g id="edge23" class="edge">
<title>n0x55aa87ce8050&#45;&gt;n0x55aa87ce8300</title>
<path fill="none" stroke="black" d="M743.09,-216.76C763.13,-207.02 788.85,-194.52 810.44,-184.02"/>
<polygon fill="black" stroke="black" points="812.26,-187.03 819.72,-179.51 809.2,-180.74 812.26,-187.03"/>
</g>
<!-- n0x55aa87ce8490 -->
<g id="node19" class="node">
<title>n0x55aa87ce8490</title>
<ellipse fill="none" stroke="black" cx="853.69" cy="-90" rx="108.58" ry="18"/>
<text text-anchor="middle" x="853.69" y="-86.3" font-family="Helvetica,Arial,sans-serif" font-size="14.00"> SetBounds&lt;bounds&gt;(...)</text>
</g>
<!-- n0x55aa87ce8300&#45;&gt;n0x55aa87ce8490 -->
<g id="edge24" class="edge">
<title>n0x55aa87ce8300&#45;&gt;n0x55aa87ce8490</title>
<path fill="none" stroke="black" d="M853.69,-143.7C853.69,-135.98 853.69,-126.71 853.69,-118.11"/>
<polygon fill="black" stroke="black" points="857.19,-118.1 853.69,-108.1 850.19,-118.1 857.19,-118.1"/>
</g>
<!-- n0x55aa87ce86a0 -->
<g id="node20" class="node">
<title>n0x55aa87ce86a0</title>
<ellipse fill="none" stroke="black" cx="853.69" cy="-18" rx="208.76" ry="18"/>
<text text-anchor="middle" x="853.69" y="-14.3" font-family="Helvetica,Arial,sans-serif" font-size="14.00"> ApplyBoundaryConditionsOnCoarseOrFineMD(...)</text>
</g>
<!-- n0x55aa87ce8490&#45;&gt;n0x55aa87ce86a0 -->
<g id="edge25" class="edge">
<title>n0x55aa87ce8490&#45;&gt;n0x55aa87ce86a0</title>
<path fill="none" stroke="black" d="M853.69,-71.7C853.69,-63.98 853.69,-54.71 853.69,-46.11"/>
<polygon fill="black" stroke="black" points="857.19,-46.1 853.69,-36.1 850.19,-46.1 857.19,-46.1"/>
</g>
</g>
</svg>
