<?xml version="1.0" encoding="UTF-8" standalone="no"?>
<!DOCTYPE svg PUBLIC "-//W3C//DTD SVG 1.1//EN"
 "http://www.w3.org/Graphics/SVG/1.1/DTD/svg11.dtd">
<!-- Generated by graphviz version 2.43.0 (0)
 -->
<!-- Title: %3 Pages: 1 -->
<svg width="1200pt" height="764pt"
 viewBox="0.00 0.00 1199.68 764.00" xmlns="http://www.w3.org/2000/svg" xmlns:xlink="http://www.w3.org/1999/xlink">
<g id="graph0" class="graph" transform="scale(1 1) rotate(0) translate(4 760)">
<title>%3</title>
<polygon fill="white" stroke="transparent" points="-4,4 -4,-760 1195.68,-760 1195.68,4 -4,4"/>
<!-- n0x562152c5ee80 -->
<g id="node1" class="node">
<title>n0x562152c5ee80</title>
<ellipse fill="none" stroke="black" cx="438.69" cy="-738" rx="46.29" ry="18"/>
<text text-anchor="middle" x="438.69" y="-734.3" font-family="Helvetica,Arial,sans-serif" font-size="14.00">first_task</text>
</g>
<!-- n0x562153293c90 -->
<g id="node3" class="node">
<title>n0x562153293c90</title>
<ellipse fill="none" stroke="black" cx="141.69" cy="-666" rx="141.88" ry="18"/>
<text text-anchor="middle" x="141.69" y="-662.3" font-family="Helvetica,Arial,sans-serif" font-size="14.00"> StartReceiveBoundaryBuffers(...)</text>
</g>
<!-- n0x562152c5ee80&#45;&gt;n0x562153293c90 -->
<g id="edge1" class="edge">
<title>n0x562152c5ee80&#45;&gt;n0x562153293c90</title>
<path fill="none" stroke="black" d="M400.16,-727.92C353.58,-716.94 274.13,-698.22 215.59,-684.42"/>
<polygon fill="black" stroke="black" points="216.18,-680.96 205.65,-682.07 214.58,-687.77 216.18,-680.96"/>
</g>
<!-- n0x562153293f30 -->
<g id="node4" class="node">
<title>n0x562153293f30</title>
<ellipse fill="none" stroke="black" cx="438.69" cy="-666" rx="137.58" ry="18"/>
<text text-anchor="middle" x="438.69" y="-662.3" font-family="Helvetica,Arial,sans-serif" font-size="14.00"> StartReceiveFluxCorrections(...)</text>
</g>
<!-- n0x562152c5ee80&#45;&gt;n0x562153293f30 -->
<g id="edge2" class="edge">
<title>n0x562152c5ee80&#45;&gt;n0x562153293f30</title>
<path fill="none" stroke="black" d="M438.69,-719.7C438.69,-711.98 438.69,-702.71 438.69,-694.11"/>
<polygon fill="black" stroke="black" points="442.19,-694.1 438.69,-684.1 435.19,-694.1 442.19,-694.1"/>
</g>
<!-- n0x5621532941b0 -->
<g id="node5" class="node">
<title>n0x5621532941b0</title>
<ellipse fill="none" stroke="black" cx="709.69" cy="-666" rx="115.88" ry="18"/>
<text text-anchor="middle" x="709.69" y="-662.3" font-family="Helvetica,Arial,sans-serif" font-size="14.00"> hydro::CalculateFluxes(...)</text>
</g>
<!-- n0x562152c5ee80&#45;&gt;n0x5621532941b0 -->
<g id="edge3" class="edge">
<title>n0x562152c5ee80&#45;&gt;n0x5621532941b0</title>
<path fill="none" stroke="black" d="M473.56,-726.1C480.53,-724.01 487.83,-721.88 494.69,-720 542.22,-706.94 596.07,-693.66 637.99,-683.67"/>
<polygon fill="black" stroke="black" points="638.91,-687.05 647.83,-681.33 637.29,-680.24 638.91,-687.05"/>
</g>
<!-- n0x562152c5efa0 -->
<g id="node2" class="node">
<title>n0x562152c5efa0</title>
<ellipse fill="none" stroke="black" cx="548.69" cy="-738" rx="45.49" ry="18"/>
<text text-anchor="middle" x="548.69" y="-734.3" font-family="Helvetica,Arial,sans-serif" font-size="14.00">last_task</text>
</g>
<!-- n0x5621532943f0 -->
<g id="node6" class="node">
<title>n0x5621532943f0</title>
<ellipse fill="none" stroke="black" cx="709.69" cy="-594" rx="108.58" ry="18"/>
<text text-anchor="middle" x="709.69" y="-590.3" font-family="Helvetica,Arial,sans-serif" font-size="14.00"> hydro::CalculateEMF(...)</text>
</g>
<!-- n0x5621532941b0&#45;&gt;n0x5621532943f0 -->
<g id="edge4" class="edge">
<title>n0x5621532941b0&#45;&gt;n0x5621532943f0</title>
<path fill="none" stroke="black" d="M709.69,-647.7C709.69,-639.98 709.69,-630.71 709.69,-622.11"/>
<polygon fill="black" stroke="black" points="713.19,-622.1 709.69,-612.1 706.19,-622.1 713.19,-622.1"/>
</g>
<!-- n0x562153294710 -->
<g id="node7" class="node">
<title>n0x562153294710</title>
<ellipse fill="none" stroke="black" cx="582.69" cy="-522" rx="136.48" ry="18"/>
<text text-anchor="middle" x="582.69" y="-518.3" font-family="Helvetica,Arial,sans-serif" font-size="14.00"> material::PrepareConserved(...)</text>
</g>
<!-- n0x5621532943f0&#45;&gt;n0x562153294710 -->
<g id="edge5" class="edge">
<title>n0x5621532943f0&#45;&gt;n0x562153294710</title>
<path fill="none" stroke="black" d="M679.91,-576.59C662.65,-567.07 640.7,-554.98 622.03,-544.68"/>
<polygon fill="black" stroke="black" points="623.61,-541.56 613.16,-539.8 620.23,-547.69 623.61,-541.56"/>
</g>
<!-- n0x562153294970 -->
<g id="node8" class="node">
<title>n0x562153294970</title>
<ellipse fill="none" stroke="black" cx="837.69" cy="-522" rx="100.98" ry="18"/>
<text text-anchor="middle" x="837.69" y="-518.3" font-family="Helvetica,Arial,sans-serif" font-size="14.00"> grid::FluxesToDuDt(...)</text>
</g>
<!-- n0x5621532943f0&#45;&gt;n0x562153294970 -->
<g id="edge6" class="edge">
<title>n0x5621532943f0&#45;&gt;n0x562153294970</title>
<path fill="none" stroke="black" d="M739.7,-576.59C757.35,-566.93 779.87,-554.62 798.86,-544.23"/>
<polygon fill="black" stroke="black" points="800.77,-547.18 807.87,-539.31 797.41,-541.04 800.77,-547.18"/>
</g>
<!-- n0x562153295350 -->
<g id="node9" class="node">
<title>n0x562153295350</title>
<ellipse fill="none" stroke="black" cx="831.69" cy="-450" rx="107.78" ry="18"/>
<text text-anchor="middle" x="831.69" y="-446.3" font-family="Helvetica,Arial,sans-serif" font-size="14.00"> grid::ApplyDuDt_Cell(...)</text>
</g>
<!-- n0x562153294710&#45;&gt;n0x562153295350 -->
<g id="edge7" class="edge">
<title>n0x562153294710&#45;&gt;n0x562153295350</title>
<path fill="none" stroke="black" d="M637.95,-505.46C676.86,-494.52 729.01,-479.86 769.4,-468.51"/>
<polygon fill="black" stroke="black" points="770.46,-471.85 779.14,-465.77 768.56,-465.11 770.46,-471.85"/>
</g>
<!-- n0x562153295950 -->
<g id="node10" class="node">
<title>n0x562153295950</title>
<ellipse fill="none" stroke="black" cx="1074.69" cy="-450" rx="116.98" ry="18"/>
<text text-anchor="middle" x="1074.69" y="-446.3" font-family="Helvetica,Arial,sans-serif" font-size="14.00"> grid::ApplyDuDt_Face1(...)</text>
</g>
<!-- n0x562153294710&#45;&gt;n0x562153295950 -->
<g id="edge8" class="edge">
<title>n0x562153294710&#45;&gt;n0x562153295950</title>
<path fill="none" stroke="black" d="M671.78,-508.32C759.51,-495.84 892.92,-476.86 981.9,-464.2"/>
<polygon fill="black" stroke="black" points="982.58,-467.64 991.98,-462.77 981.59,-460.71 982.58,-467.64"/>
</g>
<!-- n0x562153295a70 -->
<g id="node11" class="node">
<title>n0x562153295a70</title>
<ellipse fill="none" stroke="black" cx="336.69" cy="-450" rx="116.98" ry="18"/>
<text text-anchor="middle" x="336.69" y="-446.3" font-family="Helvetica,Arial,sans-serif" font-size="14.00"> grid::ApplyDuDt_Face2(...)</text>
</g>
<!-- n0x562153294710&#45;&gt;n0x562153295a70 -->
<g id="edge9" class="edge">
<title>n0x562153294710&#45;&gt;n0x562153295a70</title>
<path fill="none" stroke="black" d="M528.09,-505.46C490.12,-494.66 439.39,-480.22 399.7,-468.93"/>
<polygon fill="black" stroke="black" points="400.44,-465.5 389.86,-466.13 398.52,-472.23 400.44,-465.5"/>
</g>
<!-- n0x562153295c30 -->
<g id="node12" class="node">
<title>n0x562153295c30</title>
<ellipse fill="none" stroke="black" cx="588.69" cy="-450" rx="116.98" ry="18"/>
<text text-anchor="middle" x="588.69" y="-446.3" font-family="Helvetica,Arial,sans-serif" font-size="14.00"> grid::ApplyDuDt_Face3(...)</text>
</g>
<!-- n0x562153294710&#45;&gt;n0x562153295c30 -->
<g id="edge10" class="edge">
<title>n0x562153294710&#45;&gt;n0x562153295c30</title>
<path fill="none" stroke="black" d="M584.17,-503.7C584.83,-495.98 585.63,-486.71 586.36,-478.11"/>
<polygon fill="black" stroke="black" points="589.85,-478.37 587.22,-468.1 582.88,-477.77 589.85,-478.37"/>
</g>
<!-- n0x562153294970&#45;&gt;n0x562153295350 -->
<g id="edge11" class="edge">
<title>n0x562153294970&#45;&gt;n0x562153295350</title>
<path fill="none" stroke="black" d="M836.2,-503.7C835.54,-495.98 834.75,-486.71 834.01,-478.11"/>
<polygon fill="black" stroke="black" points="837.49,-477.77 833.15,-468.1 830.52,-478.37 837.49,-477.77"/>
</g>
<!-- n0x562153294970&#45;&gt;n0x562153295950 -->
<g id="edge12" class="edge">
<title>n0x562153294970&#45;&gt;n0x562153295950</title>
<path fill="none" stroke="black" d="M887.37,-506.33C924.03,-495.5 974.15,-480.7 1013.31,-469.13"/>
<polygon fill="black" stroke="black" points="1014.42,-472.45 1023.02,-466.26 1012.44,-465.74 1014.42,-472.45"/>
</g>
<!-- n0x562153294970&#45;&gt;n0x562153295a70 -->
<g id="edge13" class="edge">
<title>n0x562153294970&#45;&gt;n0x562153295a70</title>
<path fill="none" stroke="black" d="M764.64,-509.52C752.31,-507.63 739.64,-505.73 727.69,-504 713.16,-501.89 542.81,-478.85 431.81,-463.85"/>
<polygon fill="black" stroke="black" points="431.97,-460.34 421.59,-462.47 431.04,-467.28 431.97,-460.34"/>
</g>
<!-- n0x562153294970&#45;&gt;n0x562153295c30 -->
<g id="edge14" class="edge">
<title>n0x562153294970&#45;&gt;n0x562153295c30</title>
<path fill="none" stroke="black" d="M786.09,-506.5C747.19,-495.56 693.62,-480.5 652.1,-468.83"/>
<polygon fill="black" stroke="black" points="652.94,-465.43 642.36,-466.09 651.04,-472.17 652.94,-465.43"/>
</g>
<!-- n0x562153296230 -->
<g id="node13" class="node">
<title>n0x562153296230</title>
<ellipse fill="none" stroke="black" cx="709.69" cy="-378" rx="128.08" ry="18"/>
<text text-anchor="middle" x="709.69" y="-374.3" font-family="Helvetica,Arial,sans-serif" font-size="14.00"> material::PreparePrimitive(...)</text>
</g>
<!-- n0x562153295350&#45;&gt;n0x562153296230 -->
<g id="edge15" class="edge">
<title>n0x562153295350&#45;&gt;n0x562153296230</title>
<path fill="none" stroke="black" d="M803.08,-432.59C786.53,-423.09 765.49,-411.02 747.58,-400.74"/>
<polygon fill="black" stroke="black" points="748.95,-397.49 738.53,-395.55 745.47,-403.56 748.95,-397.49"/>
</g>
<!-- n0x562153295950&#45;&gt;n0x562153296230 -->
<g id="edge16" class="edge">
<title>n0x562153295950&#45;&gt;n0x562153296230</title>
<path fill="none" stroke="black" d="M1004.31,-435.5C943.65,-423.87 856,-407.06 792.08,-394.8"/>
<polygon fill="black" stroke="black" points="792.51,-391.32 782.03,-392.87 791.19,-398.2 792.51,-391.32"/>
</g>
<!-- n0x562153295a70&#45;&gt;n0x562153296230 -->
<g id="edge17" class="edge">
<title>n0x562153295a70&#45;&gt;n0x562153296230</title>
<path fill="none" stroke="black" d="M407.72,-435.67C470.05,-423.97 560.74,-406.95 626.45,-394.62"/>
<polygon fill="black" stroke="black" points="627.18,-398.04 636.37,-392.76 625.89,-391.16 627.18,-398.04"/>
</g>
<!-- n0x562153295c30&#45;&gt;n0x562153296230 -->
<g id="edge18" class="edge">
<title>n0x562153295c30&#45;&gt;n0x562153296230</title>
<path fill="none" stroke="black" d="M617.36,-432.41C633.67,-422.98 654.29,-411.05 671.9,-400.86"/>
<polygon fill="black" stroke="black" points="673.9,-403.75 680.8,-395.71 670.39,-397.69 673.9,-403.75"/>
</g>
<!-- n0x5621532964a0 -->
<g id="node14" class="node">
<title>n0x5621532964a0</title>
<ellipse fill="none" stroke="black" cx="709.69" cy="-306" rx="118.08" ry="18"/>
<text text-anchor="middle" x="709.69" y="-302.3" font-family="Helvetica,Arial,sans-serif" font-size="14.00"> hydro::PreparePrimitive(...)</text>
</g>
<!-- n0x562153296230&#45;&gt;n0x5621532964a0 -->
<g id="edge19" class="edge">
<title>n0x562153296230&#45;&gt;n0x5621532964a0</title>
<path fill="none" stroke="black" d="M709.69,-359.7C709.69,-351.98 709.69,-342.71 709.69,-334.11"/>
<polygon fill="black" stroke="black" points="713.19,-334.1 709.69,-324.1 706.19,-334.1 713.19,-334.1"/>
</g>
<!-- n0x562153296630 -->
<g id="node15" class="node">
<title>n0x562153296630</title>
<ellipse fill="none" stroke="black" cx="709.69" cy="-234" rx="110.48" ry="18"/>
<text text-anchor="middle" x="709.69" y="-230.3" font-family="Helvetica,Arial,sans-serif" font-size="14.00"> eos::PreparePrimitive(...)</text>
</g>
<!-- n0x5621532964a0&#45;&gt;n0x562153296630 -->
<g id="edge20" class="edge">
<title>n0x5621532964a0&#45;&gt;n0x562153296630</title>
<path fill="none" stroke="black" d="M709.69,-287.7C709.69,-279.98 709.69,-270.71 709.69,-262.11"/>
<polygon fill="black" stroke="black" points="713.19,-262.1 709.69,-252.1 706.19,-262.1 713.19,-262.1"/>
</g>
<!-- n0x5621532967c0 -->
<g id="node16" class="node">
<title>n0x5621532967c0</title>
<ellipse fill="none" stroke="black" cx="565.69" cy="-162" rx="129.18" ry="18"/>
<text text-anchor="middle" x="565.69" y="-158.3" font-family="Helvetica,Arial,sans-serif" font-size="14.00"> SendBoundBufs&lt;bounds&gt;(...)</text>
</g>
<!-- n0x562153296630&#45;&gt;n0x5621532967c0 -->
<g id="edge21" class="edge">
<title>n0x562153296630&#45;&gt;n0x5621532967c0</title>
<path fill="none" stroke="black" d="M676.29,-216.76C656.08,-206.94 630.11,-194.32 608.41,-183.77"/>
<polygon fill="black" stroke="black" points="609.93,-180.61 599.4,-179.39 606.87,-186.91 609.93,-180.61"/>
</g>
<!-- n0x5621532968e0 -->
<g id="node17" class="node">
<title>n0x5621532968e0</title>
<ellipse fill="none" stroke="black" cx="853.69" cy="-162" rx="140.28" ry="18"/>
<text text-anchor="middle" x="853.69" y="-158.3" font-family="Helvetica,Arial,sans-serif" font-size="14.00"> ReceiveBoundBufs&lt;bounds&gt;(...)</text>
</g>
<!-- n0x562153296630&#45;&gt;n0x5621532968e0 -->
<g id="edge22" class="edge">
<title>n0x562153296630&#45;&gt;n0x5621532968e0</title>
<path fill="none" stroke="black" d="M743.09,-216.76C763.13,-207.02 788.85,-194.52 810.44,-184.02"/>
<polygon fill="black" stroke="black" points="812.26,-187.03 819.72,-179.51 809.2,-180.74 812.26,-187.03"/>
</g>
<!-- n0x562153296a70 -->
<g id="node18" class="node">
<title>n0x562153296a70</title>
<ellipse fill="none" stroke="black" cx="853.69" cy="-90" rx="108.58" ry="18"/>
<text text-anchor="middle" x="853.69" y="-86.3" font-family="Helvetica,Arial,sans-serif" font-size="14.00"> SetBounds&lt;bounds&gt;(...)</text>
</g>
<!-- n0x5621532968e0&#45;&gt;n0x562153296a70 -->
<g id="edge23" class="edge">
<title>n0x5621532968e0&#45;&gt;n0x562153296a70</title>
<path fill="none" stroke="black" d="M853.69,-143.7C853.69,-135.98 853.69,-126.71 853.69,-118.11"/>
<polygon fill="black" stroke="black" points="857.19,-118.1 853.69,-108.1 850.19,-118.1 857.19,-118.1"/>
</g>
<!-- n0x562153296c20 -->
<g id="node19" class="node">
<title>n0x562153296c20</title>
<ellipse fill="none" stroke="black" cx="853.69" cy="-18" rx="208.76" ry="18"/>
<text text-anchor="middle" x="853.69" y="-14.3" font-family="Helvetica,Arial,sans-serif" font-size="14.00"> ApplyBoundaryConditionsOnCoarseOrFineMD(...)</text>
</g>
<!-- n0x562153296a70&#45;&gt;n0x562153296c20 -->
<g id="edge24" class="edge">
<title>n0x562153296a70&#45;&gt;n0x562153296c20</title>
<path fill="none" stroke="black" d="M853.69,-71.7C853.69,-63.98 853.69,-54.71 853.69,-46.11"/>
<polygon fill="black" stroke="black" points="857.19,-46.1 853.69,-36.1 850.19,-46.1 857.19,-46.1"/>
</g>
</g>
</svg>
